# Blender 4.5.3 LTS
# www.blender.org
o Sphère
v 0.000000 0.831470 -0.555570
v 0.000000 0.555570 -0.831470
v 0.000000 0.195090 -0.980785
v 0.000000 0.000000 -1.000000
v 0.000000 -0.195090 -0.980785
v 0.000000 -0.555570 -0.831470
v 0.038060 0.980785 -0.191342
v 0.074658 0.923880 -0.375330
v 0.108386 0.831470 -0.544895
v 0.137950 0.707107 -0.693520
v 0.162212 0.555570 -0.815493
v 0.180240 0.382683 -0.906127
v 0.191342 0.195090 -0.961940
v 0.195090 0.000000 -0.980785
v 0.191342 -0.195090 -0.961940
v 0.180240 -0.382683 -0.906127
v 0.162212 -0.555570 -0.815493
v 0.137950 -0.707107 -0.693520
v 0.108386 -0.831470 -0.544895
v 0.074658 -0.923880 -0.375330
v 0.038060 -0.980785 -0.191342
v 0.074658 0.980785 -0.180240
v 0.146447 0.923880 -0.353553
v 0.212608 0.831470 -0.513280
v 0.270598 0.707107 -0.653281
v 0.318190 0.555570 -0.768178
v 0.353553 0.382683 -0.853553
v 0.375330 0.195090 -0.906127
v 0.382683 0.000000 -0.923879
v 0.375330 -0.195090 -0.906127
v 0.353553 -0.382683 -0.853553
v 0.318190 -0.555570 -0.768178
v 0.270598 -0.707107 -0.653281
v 0.212608 -0.831470 -0.513280
v 0.146447 -0.923880 -0.353553
v 0.074658 -0.980785 -0.180240
v 0.108386 0.980785 -0.162212
v 0.212608 0.923880 -0.318190
v 0.308658 0.831470 -0.461940
v 0.392847 0.707107 -0.587938
v 0.461940 0.555570 -0.691342
v 0.513280 0.382683 -0.768178
v 0.544895 0.195090 -0.815493
v 0.555570 0.000000 -0.831469
v 0.544895 -0.195090 -0.815493
v 0.513280 -0.382683 -0.768178
v 0.461940 -0.555570 -0.691342
v 0.392847 -0.707107 -0.587938
v 0.308658 -0.831470 -0.461940
v 0.212608 -0.923880 -0.318190
v 0.108386 -0.980785 -0.162212
v 0.137950 0.980785 -0.137950
v 0.270598 0.923880 -0.270598
v 0.392847 0.831470 -0.392847
v 0.500000 0.707107 -0.500000
v 0.587938 0.555570 -0.587938
v 0.653281 0.382683 -0.653281
v 0.693520 0.195090 -0.693520
v 0.707107 0.000000 -0.707107
v 0.693520 -0.195090 -0.693520
v 0.653281 -0.382683 -0.653281
v 0.587938 -0.555570 -0.587938
v 0.500000 -0.707107 -0.500000
v 0.392847 -0.831470 -0.392847
v 0.270598 -0.923880 -0.270598
v 0.137950 -0.980785 -0.137950
v 0.162212 0.980785 -0.108386
v 0.318190 0.923880 -0.212608
v 0.461940 0.831470 -0.308658
v 0.587938 0.707107 -0.392847
v 0.691342 0.555570 -0.461940
v 0.768178 0.382683 -0.513280
v 0.815493 0.195090 -0.544895
v 0.831470 0.000000 -0.555570
v 0.815493 -0.195090 -0.544895
v 0.768178 -0.382683 -0.513280
v 0.691342 -0.555570 -0.461940
v 0.587938 -0.707107 -0.392847
v 0.461940 -0.831470 -0.308658
v 0.318190 -0.923880 -0.212608
v 0.162212 -0.980785 -0.108386
v 0.000000 1.000000 0.000000
v 0.180240 0.980785 -0.074658
v 0.353553 0.923880 -0.146447
v 0.513280 0.831470 -0.212607
v 0.653281 0.707107 -0.270598
v 0.768178 0.555570 -0.318190
v 0.853553 0.382683 -0.353553
v 0.906127 0.195090 -0.375330
v 0.923879 0.000000 -0.382683
v 0.906127 -0.195090 -0.375330
v 0.853553 -0.382683 -0.353553
v 0.768178 -0.555570 -0.318190
v 0.653281 -0.707107 -0.270598
v 0.513280 -0.831470 -0.212607
v 0.353553 -0.923880 -0.146447
v 0.180240 -0.980785 -0.074658
v 0.191342 0.980785 -0.038060
v 0.375330 0.923880 -0.074658
v 0.544895 0.831470 -0.108386
v 0.693520 0.707107 -0.137950
v 0.815493 0.555570 -0.162212
v 0.906127 0.382683 -0.180240
v 0.961940 0.195090 -0.191342
v 0.980785 0.000000 -0.195090
v 0.961940 -0.195090 -0.191342
v 0.906127 -0.382683 -0.180240
v 0.815493 -0.555570 -0.162212
v 0.693520 -0.707107 -0.137950
v 0.544895 -0.831470 -0.108386
v 0.375330 -0.923880 -0.074658
v 0.191342 -0.980785 -0.038060
v 0.195090 0.980785 0.000000
v 0.382683 0.923880 0.000000
v 0.555570 0.831470 0.000000
v 0.707107 0.707107 -0.000000
v 0.831469 0.555570 0.000000
v 0.923879 0.382683 -0.000000
v 0.980785 0.195090 0.000000
v 1.000000 0.000000 0.000000
v 0.980785 -0.195090 0.000000
v 0.923879 -0.382683 -0.000000
v 0.831469 -0.555570 0.000000
v 0.707107 -0.707107 -0.000000
v 0.555570 -0.831470 0.000000
v 0.382683 -0.923880 0.000000
v 0.195090 -0.980785 0.000000
v 0.191342 0.980785 0.038060
v 0.375330 0.923880 0.074658
v 0.544895 0.831470 0.108386
v 0.693520 0.707107 0.137950
v 0.815493 0.555570 0.162212
v 0.906127 0.382683 0.180240
v 0.961940 0.195090 0.191342
v 0.980785 0.000000 0.195090
v 0.961940 -0.195090 0.191342
v 0.906127 -0.382683 0.180240
v 0.815493 -0.555570 0.162212
v 0.693520 -0.707107 0.137950
v 0.544895 -0.831470 0.108386
v 0.375330 -0.923880 0.074658
v 0.191342 -0.980785 0.038060
v 0.180240 0.980785 0.074658
v 0.353553 0.923880 0.146447
v 0.513280 0.831470 0.212608
v 0.653281 0.707107 0.270598
v 0.768178 0.555570 0.318190
v 0.853553 0.382683 0.353553
v 0.906127 0.195090 0.375330
v 0.923879 0.000000 0.382683
v 0.906127 -0.195090 0.375330
v 0.853553 -0.382683 0.353553
v 0.768178 -0.555570 0.318190
v 0.653281 -0.707107 0.270598
v 0.513280 -0.831470 0.212608
v 0.353553 -0.923880 0.146447
v 0.180240 -0.980785 0.074658
v 0.162212 0.980785 0.108386
v 0.318190 0.923880 0.212608
v 0.461940 0.831470 0.308658
v 0.587938 0.707107 0.392847
v 0.691341 0.555570 0.461940
v 0.768178 0.382683 0.513280
v 0.815493 0.195090 0.544895
v 0.831469 0.000000 0.555570
v 0.815493 -0.195090 0.544895
v 0.768178 -0.382683 0.513280
v 0.691341 -0.555570 0.461940
v 0.587938 -0.707107 0.392847
v 0.461940 -0.831470 0.308658
v 0.318190 -0.923880 0.212608
v 0.162212 -0.980785 0.108386
v 0.137950 0.980785 0.137950
v 0.270598 0.923880 0.270598
v 0.392847 0.831470 0.392847
v 0.500000 0.707107 0.500000
v 0.587938 0.555570 0.587938
v 0.653281 0.382683 0.653281
v 0.693520 0.195090 0.693520
v 0.707106 0.000000 0.707107
v 0.693520 -0.195090 0.693520
v 0.653281 -0.382683 0.653281
v 0.587938 -0.555570 0.587938
v 0.500000 -0.707107 0.500000
v 0.392847 -0.831470 0.392847
v 0.270598 -0.923880 0.270598
v 0.137950 -0.980785 0.137950
v 0.108386 0.980785 0.162212
v 0.212607 0.923880 0.318190
v 0.308658 0.831470 0.461940
v 0.392847 0.707107 0.587938
v 0.461940 0.555570 0.691342
v 0.513280 0.382683 0.768178
v 0.544895 0.195090 0.815493
v 0.555570 0.000000 0.831469
v 0.544895 -0.195090 0.815493
v 0.513280 -0.382683 0.768178
v 0.461940 -0.555570 0.691342
v 0.392847 -0.707107 0.587938
v 0.308658 -0.831470 0.461940
v 0.212607 -0.923880 0.318190
v 0.108386 -0.980785 0.162212
v 0.074658 0.980785 0.180240
v 0.146447 0.923880 0.353553
v 0.212607 0.831470 0.513280
v 0.270598 0.707107 0.653281
v 0.318189 0.555570 0.768178
v 0.353553 0.382683 0.853553
v 0.375330 0.195090 0.906127
v 0.382683 0.000000 0.923879
v 0.375330 -0.195090 0.906127
v 0.353553 -0.382683 0.853553
v 0.318189 -0.555570 0.768178
v 0.270598 -0.707107 0.653281
v 0.212607 -0.831470 0.513280
v 0.146447 -0.923880 0.353553
v 0.074658 -0.980785 0.180240
v 0.038060 0.980785 0.191342
v 0.074658 0.923880 0.375330
v 0.108386 0.831470 0.544895
v 0.137950 0.707107 0.693520
v 0.162212 0.555570 0.815493
v 0.180240 0.382683 0.906127
v 0.191342 0.195090 0.961939
v 0.195090 0.000000 0.980785
v 0.191342 -0.195090 0.961939
v 0.180240 -0.382683 0.906127
v 0.162212 -0.555570 0.815493
v 0.137950 -0.707107 0.693520
v 0.108386 -0.831470 0.544895
v 0.074658 -0.923880 0.375330
v 0.038060 -0.980785 0.191342
v -0.000000 0.980785 0.195090
v -0.000000 0.923880 0.382683
v -0.000000 0.831470 0.555570
v -0.000000 0.707107 0.707107
v -0.000000 0.555570 0.831469
v 0.000000 0.382683 0.923879
v -0.000000 0.195090 0.980785
v -0.000000 0.000000 0.999999
v -0.000000 -0.195090 0.980785
v 0.000000 -0.382683 0.923879
v -0.000000 -0.555570 0.831469
v -0.000000 -0.707107 0.707107
v -0.000000 -0.831470 0.555570
v -0.000000 -0.923880 0.382683
v -0.000000 -0.980785 0.195090
v -0.038060 0.980785 0.191342
v -0.074658 0.923880 0.375330
v -0.108386 0.831470 0.544895
v -0.137950 0.707107 0.693520
v -0.162212 0.555570 0.815493
v -0.180240 0.382683 0.906127
v -0.191342 0.195090 0.961939
v -0.195091 0.000000 0.980785
v -0.191342 -0.195090 0.961939
v -0.180240 -0.382683 0.906127
v -0.162212 -0.555570 0.815493
v -0.137950 -0.707107 0.693520
v -0.108386 -0.831470 0.544895
v -0.074658 -0.923880 0.375330
v -0.038060 -0.980785 0.191342
v -0.074658 0.980785 0.180240
v -0.146447 0.923880 0.353553
v -0.212608 0.831470 0.513280
v -0.270598 0.707107 0.653281
v -0.318190 0.555570 0.768177
v -0.353553 0.382683 0.853553
v -0.375330 0.195090 0.906127
v -0.382683 0.000000 0.923879
v -0.375330 -0.195090 0.906127
v -0.353553 -0.382683 0.853553
v -0.318190 -0.555570 0.768177
v -0.270598 -0.707107 0.653281
v -0.212608 -0.831470 0.513280
v -0.146447 -0.923880 0.353553
v -0.074658 -0.980785 0.180240
v -0.108386 0.980785 0.162212
v -0.212608 0.923880 0.318190
v -0.308658 0.831470 0.461939
v -0.392847 0.707107 0.587938
v -0.461940 0.555570 0.691341
v -0.513280 0.382683 0.768178
v -0.544895 0.195090 0.815493
v -0.555570 0.000000 0.831469
v -0.544895 -0.195090 0.815493
v -0.513280 -0.382683 0.768178
v -0.461940 -0.555570 0.691341
v -0.392847 -0.707107 0.587938
v -0.308658 -0.831470 0.461939
v -0.212608 -0.923880 0.318190
v -0.108386 -0.980785 0.162212
v -0.137950 0.980785 0.137950
v -0.270598 0.923880 0.270598
v -0.392847 0.831470 0.392847
v -0.500000 0.707107 0.500000
v -0.587938 0.555570 0.587937
v -0.653281 0.382683 0.653281
v -0.693520 0.195090 0.693520
v -0.707106 0.000000 0.707106
v -0.693520 -0.195090 0.693520
v -0.653281 -0.382683 0.653281
v -0.587938 -0.555570 0.587937
v -0.500000 -0.707107 0.500000
v -0.392847 -0.831470 0.392847
v -0.270598 -0.923880 0.270598
v -0.137950 -0.980785 0.137950
v 0.000000 -1.000000 0.000000
v -0.162212 0.980785 0.108386
v -0.318190 0.923880 0.212607
v -0.461940 0.831470 0.308658
v -0.587938 0.707107 0.392847
v -0.691341 0.555570 0.461939
v -0.768177 0.382683 0.513280
v -0.815493 0.195090 0.544895
v -0.831469 0.000000 0.555569
v -0.815493 -0.195090 0.544895
v -0.768177 -0.382683 0.513280
v -0.691341 -0.555570 0.461939
v -0.587938 -0.707107 0.392847
v -0.461940 -0.831470 0.308658
v -0.318190 -0.923880 0.212607
v -0.162212 -0.980785 0.108386
v -0.180240 0.980785 0.074658
v -0.353553 0.923880 0.146447
v -0.513280 0.831470 0.212607
v -0.653281 0.707107 0.270598
v -0.768177 0.555570 0.318189
v -0.853553 0.382683 0.353553
v -0.906127 0.195090 0.375330
v -0.923879 0.000000 0.382683
v -0.906127 -0.195090 0.375330
v -0.853553 -0.382683 0.353553
v -0.768177 -0.555570 0.318189
v -0.653281 -0.707107 0.270598
v -0.513280 -0.831470 0.212607
v -0.353553 -0.923880 0.146447
v -0.180240 -0.980785 0.074658
v -0.191342 0.980785 0.038060
v -0.375330 0.923880 0.074658
v -0.544895 0.831470 0.108386
v -0.693520 0.707107 0.137950
v -0.815493 0.555570 0.162211
v -0.906127 0.382683 0.180240
v -0.961939 0.195090 0.191341
v -0.980784 0.000000 0.195090
v -0.961939 -0.195090 0.191341
v -0.906127 -0.382683 0.180240
v -0.815493 -0.555570 0.162211
v -0.693520 -0.707107 0.137950
v -0.544895 -0.831470 0.108386
v -0.375330 -0.923880 0.074658
v -0.191342 -0.980785 0.038060
v -0.195090 0.980785 -0.000000
v -0.382683 0.923880 -0.000000
v -0.555570 0.831470 -0.000000
v -0.707107 0.707107 -0.000000
v -0.831469 0.555570 -0.000000
v -0.923879 0.382683 -0.000000
v -0.980785 0.195090 -0.000000
v -0.999999 0.000000 -0.000000
v -0.980785 -0.195090 -0.000000
v -0.923879 -0.382683 -0.000000
v -0.831469 -0.555570 -0.000000
v -0.707107 -0.707107 -0.000000
v -0.555570 -0.831470 -0.000000
v -0.382683 -0.923880 -0.000000
v -0.195090 -0.980785 -0.000000
v -0.191342 0.980785 -0.038060
v -0.375330 0.923880 -0.074658
v -0.544895 0.831470 -0.108386
v -0.693520 0.707107 -0.137950
v -0.815493 0.555570 -0.162212
v -0.906127 0.382683 -0.180240
v -0.961939 0.195090 -0.191342
v -0.980784 0.000000 -0.195091
v -0.961939 -0.195090 -0.191342
v -0.906127 -0.382683 -0.180240
v -0.815493 -0.555570 -0.162212
v -0.693520 -0.707107 -0.137950
v -0.544895 -0.831470 -0.108386
v -0.375330 -0.923880 -0.074658
v -0.191342 -0.980785 -0.038060
v -0.180240 0.980785 -0.074658
v -0.353553 0.923880 -0.146447
v -0.513279 0.831470 -0.212607
v -0.653281 0.707107 -0.270598
v -0.768177 0.555570 -0.318190
v -0.853553 0.382683 -0.353553
v -0.906127 0.195090 -0.375330
v -0.923878 0.000000 -0.382683
v -0.906127 -0.195090 -0.375330
v -0.853553 -0.382683 -0.353553
v -0.768177 -0.555570 -0.318190
v -0.653281 -0.707107 -0.270598
v -0.513279 -0.831470 -0.212607
v -0.353553 -0.923880 -0.146447
v -0.180240 -0.980785 -0.074658
v -0.162212 0.980785 -0.108386
v -0.318189 0.923880 -0.212607
v -0.461939 0.831470 -0.308658
v -0.587938 0.707107 -0.392847
v -0.691341 0.555570 -0.461940
v -0.768177 0.382683 -0.513280
v -0.815493 0.195090 -0.544895
v -0.831468 0.000000 -0.555570
v -0.815493 -0.195090 -0.544895
v -0.768177 -0.382683 -0.513280
v -0.691341 -0.555570 -0.461940
v -0.587938 -0.707107 -0.392847
v -0.461939 -0.831470 -0.308658
v -0.318189 -0.923880 -0.212607
v -0.162212 -0.980785 -0.108386
v -0.137950 0.980785 -0.137950
v -0.270598 0.923880 -0.270598
v -0.392847 0.831470 -0.392847
v -0.500000 0.707107 -0.500000
v -0.587937 0.555570 -0.587938
v -0.653281 0.382683 -0.653281
v -0.693519 0.195090 -0.693520
v -0.707106 0.000000 -0.707106
v -0.693519 -0.195090 -0.693520
v -0.653281 -0.382683 -0.653281
v -0.587937 -0.555570 -0.587938
v -0.500000 -0.707107 -0.500000
v -0.392847 -0.831470 -0.392847
v -0.270598 -0.923880 -0.270598
v -0.137950 -0.980785 -0.137950
v -0.108386 0.980785 -0.162212
v -0.212607 0.923880 -0.318190
v -0.308658 0.831470 -0.461939
v -0.392847 0.707107 -0.587938
v -0.461939 0.555570 -0.691341
v -0.513280 0.382683 -0.768177
v -0.544895 0.195090 -0.815493
v -0.555569 0.000000 -0.831469
v -0.544895 -0.195090 -0.815493
v -0.513280 -0.382683 -0.768177
v -0.461939 -0.555570 -0.691341
v -0.392847 -0.707107 -0.587938
v -0.308658 -0.831470 -0.461939
v -0.212607 -0.923880 -0.318190
v -0.108386 -0.980785 -0.162212
v -0.074658 0.980785 -0.180240
v -0.146446 0.923880 -0.353553
v -0.212607 0.831470 -0.513279
v -0.270598 0.707107 -0.653281
v -0.318189 0.555570 -0.768177
v -0.353553 0.382683 -0.853553
v -0.375330 0.195090 -0.906127
v -0.382683 0.000000 -0.923879
v -0.375330 -0.195090 -0.906127
v -0.353553 -0.382683 -0.853553
v -0.318189 -0.555570 -0.768177
v -0.270598 -0.707107 -0.653281
v -0.212607 -0.831470 -0.513279
v -0.146446 -0.923880 -0.353553
v -0.074658 -0.980785 -0.180240
v -0.038060 0.980785 -0.191342
v -0.074658 0.923880 -0.375330
v -0.108386 0.831470 -0.544895
v -0.137950 0.707107 -0.693520
v -0.162211 0.555570 -0.815493
v -0.180240 0.382683 -0.906127
v -0.191341 0.195090 -0.961939
v -0.195090 0.000000 -0.980784
v -0.191341 -0.195090 -0.961939
v -0.180240 -0.382683 -0.906127
v -0.162211 -0.555570 -0.815493
v -0.137950 -0.707107 -0.693520
v -0.108386 -0.831470 -0.544895
v -0.074658 -0.923880 -0.375330
v -0.038060 -0.980785 -0.191342
v 0.000000 0.980785 -0.195090
v 0.000000 0.923880 -0.382683
v 0.000000 0.707107 -0.707107
v 0.000000 0.382683 -0.923879
v 0.000000 -0.382683 -0.923879
v 0.000000 -0.707107 -0.707107
v 0.000000 -0.831470 -0.555570
v 0.000000 -0.923880 -0.382683
v 0.000000 -0.980785 -0.195090
vn 0.0097 -0.9951 -0.0980
vn 0.0975 -0.0976 -0.9904
vn 0.0286 0.9565 -0.2902
vn 0.0938 -0.2890 -0.9527
vn 0.0464 0.8810 -0.4709
vn 0.0865 -0.4696 -0.8786
vn 0.0624 0.7715 -0.6332
vn 0.0759 -0.6326 -0.7708
vn 0.0759 0.6326 -0.7708
vn 0.0624 -0.7715 -0.6332
vn 0.0865 0.4696 -0.8786
vn 0.0464 -0.8810 -0.4709
vn 0.0938 0.2890 -0.9527
vn 0.0286 -0.9565 -0.2902
vn 0.0975 0.0975 -0.9904
vn 0.0097 0.9951 -0.0980
vn 0.0846 -0.9565 -0.2790
vn 0.2889 0.0976 -0.9524
vn 0.0286 0.9951 -0.0942
vn 0.0286 -0.9951 -0.0942
vn 0.2889 -0.0976 -0.9524
vn 0.0846 0.9565 -0.2790
vn 0.2779 -0.2890 -0.9161
vn 0.1374 0.8810 -0.4528
vn 0.2563 -0.4696 -0.8448
vn 0.1847 0.7715 -0.6088
vn 0.2248 -0.6326 -0.7412
vn 0.2248 0.6326 -0.7412
vn 0.1847 -0.7715 -0.6088
vn 0.2563 0.4696 -0.8448
vn 0.1374 -0.8810 -0.4528
vn 0.2779 0.2890 -0.9161
vn 0.2999 0.7715 -0.5611
vn 0.3651 -0.6326 -0.6831
vn 0.3651 0.6326 -0.6831
vn 0.2999 -0.7715 -0.5611
vn 0.4162 0.4696 -0.7786
vn 0.2230 -0.8810 -0.4173
vn 0.4513 0.2890 -0.8443
vn 0.1374 -0.9565 -0.2571
vn 0.4691 0.0975 -0.8777
vn 0.0464 0.9951 -0.0869
vn 0.0464 -0.9951 -0.0869
vn 0.4691 -0.0975 -0.8777
vn 0.1374 0.9565 -0.2571
vn 0.4513 -0.2890 -0.8443
vn 0.2231 0.8810 -0.4173
vn 0.4162 -0.4696 -0.7786
vn 0.6314 0.0975 -0.7693
vn 0.0625 0.9951 -0.0761
vn 0.0625 -0.9951 -0.0761
vn 0.6314 -0.0975 -0.7693
vn 0.1850 0.9565 -0.2254
vn 0.6073 -0.2890 -0.7400
vn 0.3002 0.8810 -0.3658
vn 0.5601 -0.4696 -0.6825
vn 0.4036 0.7715 -0.4918
vn 0.4913 -0.6326 -0.5987
vn 0.4913 0.6326 -0.5987
vn 0.4036 -0.7715 -0.4918
vn 0.5601 0.4696 -0.6825
vn 0.3002 -0.8810 -0.3658
vn 0.6073 0.2890 -0.7400
vn 0.1850 -0.9565 -0.2254
vn 0.5987 -0.6326 -0.4913
vn 0.5987 0.6326 -0.4913
vn 0.4918 -0.7715 -0.4036
vn 0.6825 0.4696 -0.5601
vn 0.3658 -0.8810 -0.3002
vn 0.7400 0.2890 -0.6073
vn 0.2254 -0.9566 -0.1850
vn 0.7693 0.0975 -0.6314
vn 0.0761 0.9951 -0.0625
vn 0.0761 -0.9951 -0.0625
vn 0.7693 -0.0975 -0.6314
vn 0.2254 0.9565 -0.1850
vn 0.7400 -0.2890 -0.6073
vn 0.3658 0.8810 -0.3002
vn 0.6825 -0.4696 -0.5601
vn 0.4918 0.7715 -0.4036
vn 0.0869 -0.9951 -0.0464
vn 0.8777 -0.0975 -0.4691
vn 0.2571 0.9565 -0.1374
vn 0.8443 -0.2890 -0.4513
vn 0.4173 0.8810 -0.2230
vn 0.7786 -0.4696 -0.4162
vn 0.5611 0.7715 -0.2999
vn 0.6831 -0.6326 -0.3651
vn 0.6831 0.6326 -0.3651
vn 0.5611 -0.7715 -0.2999
vn 0.7786 0.4696 -0.4162
vn 0.4173 -0.8810 -0.2230
vn 0.8443 0.2890 -0.4513
vn 0.2571 -0.9565 -0.1374
vn 0.8777 0.0975 -0.4691
vn 0.0869 0.9951 -0.0464
vn 0.6088 -0.7715 -0.1847
vn 0.8448 0.4696 -0.2563
vn 0.4528 -0.8810 -0.1374
vn 0.9161 0.2890 -0.2779
vn 0.2790 -0.9565 -0.0846
vn 0.9524 0.0975 -0.2889
vn 0.0942 0.9951 -0.0286
vn 0.0942 -0.9951 -0.0286
vn 0.9524 -0.0975 -0.2889
vn 0.2790 0.9565 -0.0846
vn 0.9161 -0.2890 -0.2779
vn 0.4528 0.8810 -0.1374
vn 0.8448 -0.4696 -0.2563
vn 0.6088 0.7715 -0.1847
vn 0.7412 -0.6326 -0.2248
vn 0.7412 0.6326 -0.2248
vn 0.2902 0.9565 -0.0286
vn 0.9527 -0.2890 -0.0938
vn 0.4709 0.8810 -0.0464
vn 0.8786 -0.4696 -0.0865
vn 0.6332 0.7715 -0.0624
vn 0.7708 -0.6326 -0.0759
vn 0.7708 0.6326 -0.0759
vn 0.6332 -0.7715 -0.0624
vn 0.8786 0.4696 -0.0865
vn 0.4709 -0.8810 -0.0464
vn 0.9527 0.2890 -0.0938
vn 0.2902 -0.9565 -0.0286
vn 0.9904 0.0975 -0.0975
vn 0.0980 0.9951 -0.0097
vn 0.0980 -0.9951 -0.0097
vn 0.9904 -0.0975 -0.0975
vn 0.8786 0.4696 0.0865
vn 0.4709 -0.8810 0.0464
vn 0.9527 0.2890 0.0938
vn 0.2902 -0.9565 0.0286
vn 0.9904 0.0975 0.0976
vn 0.0980 0.9951 0.0097
vn 0.0980 -0.9951 0.0097
vn 0.9904 -0.0975 0.0976
vn 0.2902 0.9565 0.0286
vn 0.9527 -0.2890 0.0938
vn 0.4709 0.8810 0.0464
vn 0.8786 -0.4696 0.0865
vn 0.6332 0.7715 0.0624
vn 0.7708 -0.6326 0.0759
vn 0.7708 0.6326 0.0759
vn 0.6332 -0.7715 0.0624
vn 0.9161 -0.2890 0.2779
vn 0.4528 0.8810 0.1374
vn 0.8448 -0.4696 0.2563
vn 0.6088 0.7715 0.1847
vn 0.7412 -0.6326 0.2248
vn 0.7412 0.6326 0.2248
vn 0.6088 -0.7715 0.1847
vn 0.8448 0.4696 0.2563
vn 0.4528 -0.8810 0.1374
vn 0.9161 0.2890 0.2779
vn 0.2790 -0.9565 0.0846
vn 0.9524 0.0975 0.2889
vn 0.0942 0.9951 0.0286
vn 0.0942 -0.9951 0.0286
vn 0.9524 -0.0975 0.2889
vn 0.2790 0.9565 0.0846
vn 0.4173 -0.8810 0.2230
vn 0.8443 0.2890 0.4513
vn 0.2571 -0.9565 0.1374
vn 0.8777 0.0975 0.4691
vn 0.0869 0.9951 0.0464
vn 0.0869 -0.9951 0.0464
vn 0.8777 -0.0975 0.4691
vn 0.2571 0.9565 0.1374
vn 0.8443 -0.2890 0.4513
vn 0.4173 0.8810 0.2231
vn 0.7786 -0.4696 0.4162
vn 0.5611 0.7715 0.2999
vn 0.6831 -0.6326 0.3651
vn 0.6831 0.6326 0.3651
vn 0.5611 -0.7715 0.2999
vn 0.7786 0.4696 0.4162
vn 0.3658 0.8810 0.3002
vn 0.6825 -0.4696 0.5601
vn 0.4918 0.7715 0.4036
vn 0.5987 -0.6326 0.4913
vn 0.5987 0.6326 0.4913
vn 0.4918 -0.7715 0.4036
vn 0.6825 0.4696 0.5601
vn 0.3658 -0.8810 0.3002
vn 0.7400 0.2890 0.6073
vn 0.2254 -0.9565 0.1850
vn 0.7693 0.0975 0.6314
vn 0.0761 0.9951 0.0625
vn 0.0761 -0.9951 0.0625
vn 0.7693 -0.0975 0.6314
vn 0.2254 0.9565 0.1850
vn 0.7400 -0.2890 0.6073
vn 0.6073 0.2890 0.7400
vn 0.1850 -0.9565 0.2254
vn 0.6314 0.0975 0.7693
vn 0.0625 0.9951 0.0761
vn 0.0625 -0.9951 0.0761
vn 0.6314 -0.0975 0.7693
vn 0.1850 0.9565 0.2254
vn 0.6073 -0.2890 0.7400
vn 0.3002 0.8810 0.3658
vn 0.5601 -0.4696 0.6825
vn 0.4036 0.7715 0.4918
vn 0.4913 -0.6326 0.5987
vn 0.4913 0.6326 0.5987
vn 0.4036 -0.7715 0.4918
vn 0.5601 0.4696 0.6825
vn 0.3002 -0.8810 0.3658
vn 0.4162 -0.4696 0.7786
vn 0.2999 0.7715 0.5611
vn 0.3651 -0.6326 0.6831
vn 0.3651 0.6326 0.6831
vn 0.2999 -0.7715 0.5611
vn 0.4162 0.4696 0.7786
vn 0.2230 -0.8810 0.4173
vn 0.4513 0.2890 0.8443
vn 0.1374 -0.9565 0.2571
vn 0.4691 0.0975 0.8777
vn 0.0464 0.9951 0.0869
vn 0.0464 -0.9951 0.0869
vn 0.4691 -0.0975 0.8777
vn 0.1374 0.9565 0.2571
vn 0.4513 -0.2890 0.8443
vn 0.2230 0.8810 0.4173
vn 0.0846 -0.9565 0.2790
vn 0.2889 0.0975 0.9524
vn 0.0286 0.9951 0.0942
vn 0.0286 -0.9951 0.0942
vn 0.2889 -0.0975 0.9524
vn 0.0846 0.9565 0.2790
vn 0.2779 -0.2890 0.9161
vn 0.1374 0.8810 0.4528
vn 0.2563 -0.4696 0.8448
vn 0.1847 0.7715 0.6088
vn 0.2248 -0.6326 0.7412
vn 0.2248 0.6326 0.7412
vn 0.1847 -0.7715 0.6088
vn 0.2563 0.4696 0.8448
vn 0.1374 -0.8810 0.4528
vn 0.2779 0.2890 0.9161
vn 0.0759 -0.6326 0.7708
vn 0.0759 0.6326 0.7708
vn 0.0624 -0.7715 0.6332
vn 0.0865 0.4696 0.8786
vn 0.0464 -0.8810 0.4709
vn 0.0938 0.2890 0.9527
vn 0.0286 -0.9565 0.2902
vn 0.0975 0.0975 0.9904
vn 0.0097 0.9951 0.0980
vn 0.0097 -0.9951 0.0980
vn 0.0975 -0.0975 0.9904
vn 0.0286 0.9565 0.2902
vn 0.0938 -0.2890 0.9527
vn 0.0464 0.8810 0.4709
vn 0.0865 -0.4696 0.8786
vn 0.0624 0.7715 0.6332
vn -0.0097 0.9951 0.0980
vn -0.0097 -0.9951 0.0980
vn -0.0975 -0.0975 0.9904
vn -0.0286 0.9565 0.2902
vn -0.0938 -0.2890 0.9527
vn -0.0464 0.8810 0.4709
vn -0.0865 -0.4696 0.8786
vn -0.0624 0.7715 0.6332
vn -0.0759 -0.6326 0.7708
vn -0.0759 0.6326 0.7708
vn -0.0624 -0.7715 0.6332
vn -0.0865 0.4696 0.8786
vn -0.0464 -0.8810 0.4709
vn -0.0938 0.2890 0.9527
vn -0.0286 -0.9565 0.2902
vn -0.0976 0.0975 0.9904
vn -0.2248 0.6326 0.7412
vn -0.1847 -0.7715 0.6088
vn -0.2563 0.4696 0.8448
vn -0.1374 -0.8810 0.4528
vn -0.2779 0.2890 0.9161
vn -0.0846 -0.9565 0.2790
vn -0.2889 0.0975 0.9524
vn -0.0286 0.9951 0.0942
vn -0.0286 -0.9951 0.0942
vn -0.2889 -0.0975 0.9524
vn -0.0846 0.9565 0.2790
vn -0.2779 -0.2890 0.9161
vn -0.1374 0.8810 0.4528
vn -0.2563 -0.4696 0.8448
vn -0.1847 0.7715 0.6088
vn -0.2248 -0.6326 0.7412
vn -0.4691 -0.0975 0.8777
vn -0.1374 0.9565 0.2571
vn -0.4513 -0.2890 0.8443
vn -0.2230 0.8810 0.4173
vn -0.4162 -0.4696 0.7786
vn -0.2999 0.7715 0.5611
vn -0.3651 -0.6326 0.6831
vn -0.3651 0.6326 0.6831
vn -0.2999 -0.7715 0.5611
vn -0.4162 0.4696 0.7786
vn -0.2230 -0.8810 0.4173
vn -0.4513 0.2890 0.8443
vn -0.1374 -0.9565 0.2571
vn -0.4691 0.0975 0.8777
vn -0.0464 0.9951 0.0869
vn -0.0464 -0.9951 0.0869
vn -0.4036 -0.7715 0.4918
vn -0.5601 0.4696 0.6825
vn -0.3002 -0.8810 0.3658
vn -0.6073 0.2890 0.7400
vn -0.1850 -0.9565 0.2254
vn -0.6314 0.0975 0.7693
vn -0.0625 0.9951 0.0761
vn -0.0625 -0.9951 0.0761
vn -0.6314 -0.0975 0.7693
vn -0.1850 0.9565 0.2254
vn -0.6073 -0.2890 0.7400
vn -0.3002 0.8810 0.3658
vn -0.5601 -0.4696 0.6825
vn -0.4036 0.7715 0.4918
vn -0.4913 -0.6326 0.5987
vn -0.4913 0.6326 0.5987
vn -0.2254 0.9565 0.1850
vn -0.7400 -0.2890 0.6073
vn -0.3658 0.8810 0.3002
vn -0.6825 -0.4696 0.5601
vn -0.4918 0.7715 0.4036
vn -0.5987 -0.6326 0.4913
vn -0.5987 0.6326 0.4913
vn -0.4918 -0.7715 0.4036
vn -0.6825 0.4696 0.5601
vn -0.3658 -0.8810 0.3002
vn -0.7400 0.2890 0.6073
vn -0.2254 -0.9566 0.1850
vn -0.7693 0.0975 0.6314
vn -0.0761 0.9951 0.0625
vn -0.0761 -0.9951 0.0625
vn -0.7693 -0.0975 0.6314
vn -0.7786 0.4696 0.4162
vn -0.4173 -0.8810 0.2231
vn -0.8443 0.2890 0.4513
vn -0.2571 -0.9565 0.1374
vn -0.8777 0.0975 0.4691
vn -0.0869 0.9951 0.0464
vn -0.0869 -0.9951 0.0464
vn -0.8777 -0.0975 0.4691
vn -0.2571 0.9565 0.1374
vn -0.8443 -0.2890 0.4513
vn -0.4173 0.8810 0.2230
vn -0.7786 -0.4696 0.4162
vn -0.5611 0.7715 0.2999
vn -0.6831 -0.6326 0.3651
vn -0.6831 0.6326 0.3651
vn -0.5611 -0.7715 0.2999
vn -0.9161 -0.2890 0.2779
vn -0.4528 0.8810 0.1374
vn -0.8448 -0.4696 0.2563
vn -0.6088 0.7715 0.1847
vn -0.7412 -0.6326 0.2248
vn -0.7412 0.6326 0.2248
vn -0.6088 -0.7715 0.1847
vn -0.8448 0.4696 0.2563
vn -0.4528 -0.8810 0.1374
vn -0.9161 0.2890 0.2779
vn -0.2790 -0.9565 0.0846
vn -0.9524 0.0975 0.2889
vn -0.0942 0.9951 0.0286
vn -0.0942 -0.9951 0.0286
vn -0.9524 -0.0975 0.2889
vn -0.2790 0.9565 0.0846
vn -0.4709 -0.8810 0.0464
vn -0.9527 0.2890 0.0938
vn -0.2902 -0.9565 0.0286
vn -0.9904 0.0975 0.0975
vn -0.0980 0.9951 0.0097
vn -0.0980 -0.9951 0.0097
vn -0.9904 -0.0975 0.0976
vn -0.2902 0.9565 0.0286
vn -0.9527 -0.2890 0.0938
vn -0.4709 0.8810 0.0464
vn -0.8786 -0.4696 0.0865
vn -0.6332 0.7715 0.0624
vn -0.7708 -0.6326 0.0759
vn -0.7708 0.6326 0.0759
vn -0.6332 -0.7715 0.0624
vn -0.8786 0.4696 0.0865
vn -0.8786 -0.4696 -0.0865
vn -0.6332 0.7715 -0.0624
vn -0.7708 -0.6326 -0.0759
vn -0.7708 0.6326 -0.0759
vn -0.6332 -0.7715 -0.0624
vn -0.8786 0.4696 -0.0865
vn -0.4709 -0.8810 -0.0464
vn -0.9527 0.2890 -0.0938
vn -0.2902 -0.9565 -0.0286
vn -0.9904 0.0975 -0.0975
vn -0.0980 0.9951 -0.0097
vn -0.0980 -0.9951 -0.0097
vn -0.9904 -0.0975 -0.0976
vn -0.2902 0.9565 -0.0286
vn -0.9527 -0.2890 -0.0938
vn -0.4709 0.8810 -0.0464
vn -0.2790 -0.9565 -0.0846
vn -0.9524 0.0975 -0.2889
vn -0.0942 0.9951 -0.0286
vn -0.0942 -0.9951 -0.0286
vn -0.9524 -0.0975 -0.2889
vn -0.2790 0.9565 -0.0846
vn -0.9161 -0.2890 -0.2779
vn -0.4528 0.8810 -0.1374
vn -0.8448 -0.4696 -0.2563
vn -0.6088 0.7715 -0.1847
vn -0.7412 -0.6326 -0.2248
vn -0.7412 0.6326 -0.2248
vn -0.6088 -0.7715 -0.1847
vn -0.8448 0.4696 -0.2563
vn -0.4528 -0.8810 -0.1374
vn -0.9161 0.2890 -0.2779
vn -0.5611 0.7715 -0.2999
vn -0.6831 -0.6326 -0.3651
vn -0.6831 0.6326 -0.3651
vn -0.5611 -0.7715 -0.2999
vn -0.7786 0.4696 -0.4162
vn -0.4173 -0.8810 -0.2231
vn -0.8443 0.2890 -0.4513
vn -0.2571 -0.9565 -0.1374
vn -0.8777 0.0975 -0.4691
vn -0.0869 0.9951 -0.0464
vn -0.0869 -0.9951 -0.0464
vn -0.8777 -0.0975 -0.4691
vn -0.2571 0.9565 -0.1374
vn -0.8443 -0.2890 -0.4513
vn -0.4173 0.8810 -0.2231
vn -0.7786 -0.4696 -0.4162
vn -0.7693 0.0975 -0.6314
vn -0.0761 0.9951 -0.0625
vn -0.0761 -0.9951 -0.0625
vn -0.7693 -0.0975 -0.6314
vn -0.2254 0.9565 -0.1850
vn -0.7400 -0.2890 -0.6073
vn -0.3658 0.8810 -0.3002
vn -0.6825 -0.4696 -0.5601
vn -0.4918 0.7715 -0.4036
vn -0.5987 -0.6326 -0.4913
vn -0.5987 0.6326 -0.4913
vn -0.4918 -0.7715 -0.4036
vn -0.6825 0.4696 -0.5601
vn -0.3658 -0.8810 -0.3002
vn -0.7400 0.2890 -0.6073
vn -0.2254 -0.9565 -0.1850
vn -0.4913 -0.6326 -0.5987
vn -0.4913 0.6326 -0.5987
vn -0.4036 -0.7715 -0.4918
vn -0.5601 0.4696 -0.6825
vn -0.3002 -0.8810 -0.3658
vn -0.6073 0.2890 -0.7400
vn -0.1850 -0.9565 -0.2254
vn -0.6314 0.0975 -0.7693
vn -0.0625 0.9951 -0.0761
vn -0.0625 -0.9951 -0.0761
vn -0.6314 -0.0975 -0.7693
vn -0.1850 0.9565 -0.2254
vn -0.6073 -0.2890 -0.7400
vn -0.3002 0.8810 -0.3658
vn -0.5601 -0.4696 -0.6825
vn -0.4036 0.7715 -0.4918
vn -0.0464 0.9951 -0.0869
vn -0.0464 -0.9951 -0.0869
vn -0.4691 -0.0975 -0.8777
vn -0.1374 0.9565 -0.2571
vn -0.4513 -0.2890 -0.8443
vn -0.2230 0.8810 -0.4173
vn -0.4162 -0.4696 -0.7786
vn -0.2999 0.7715 -0.5611
vn -0.3651 -0.6326 -0.6831
vn -0.3651 0.6326 -0.6831
vn -0.2999 -0.7715 -0.5611
vn -0.4162 0.4696 -0.7786
vn -0.2230 -0.8810 -0.4173
vn -0.4513 0.2890 -0.8443
vn -0.1374 -0.9565 -0.2571
vn -0.4691 0.0975 -0.8777
vn -0.2248 0.6326 -0.7412
vn -0.1847 -0.7715 -0.6088
vn -0.2563 0.4696 -0.8448
vn -0.1374 -0.8810 -0.4528
vn -0.2779 0.2890 -0.9161
vn -0.0846 -0.9565 -0.2790
vn -0.2889 0.0975 -0.9524
vn -0.0286 0.9951 -0.0942
vn -0.0286 -0.9951 -0.0942
vn -0.2889 -0.0975 -0.9524
vn -0.0846 0.9565 -0.2790
vn -0.2779 -0.2890 -0.9161
vn -0.1374 0.8810 -0.4528
vn -0.2563 -0.4696 -0.8448
vn -0.1847 0.7715 -0.6088
vn -0.2248 -0.6326 -0.7412
vn -0.0976 -0.0975 -0.9904
vn -0.0286 0.9565 -0.2902
vn -0.0938 -0.2890 -0.9527
vn -0.0464 0.8810 -0.4709
vn -0.0865 -0.4696 -0.8786
vn -0.0624 0.7715 -0.6332
vn -0.0759 -0.6326 -0.7708
vn -0.0759 0.6326 -0.7708
vn -0.0624 -0.7715 -0.6332
vn -0.0865 0.4696 -0.8786
vn -0.0464 -0.8810 -0.4709
vn -0.0938 0.2890 -0.9527
vn -0.0286 -0.9565 -0.2902
vn -0.0976 0.0975 -0.9904
vn -0.0097 0.9951 -0.0980
vn -0.0097 -0.9951 -0.0980
vn 0.0975 -0.0975 -0.9904
vn 0.0975 0.0976 -0.9904
vn 0.2231 -0.8810 -0.4173
vn 0.2230 0.8810 -0.4173
vn 0.2254 -0.9565 -0.1850
vn 0.4173 -0.8810 0.2231
vn 0.4173 0.8810 0.2230
vn 0.2231 -0.8810 0.4173
vn -0.0976 -0.0975 0.9904
vn -0.0975 0.0975 0.9904
vn -0.2231 0.8810 0.4173
vn -0.2231 -0.8810 0.4173
vn -0.2254 -0.9565 0.1850
vn -0.4173 -0.8810 0.2230
vn -0.9904 0.0975 0.0976
vn -0.9904 -0.0975 0.0975
vn -0.9904 0.0975 -0.0976
vn -0.9904 -0.0975 -0.0975
vt 0.095989 0.180226
vt 0.103969 0.222648
vt 0.096024 0.223132
vt 0.764899 0.501894
vt 0.819152 0.528114
vt 0.780071 0.542388
vt 0.421887 0.238238
vt 0.432006 0.197596
vt 0.437472 0.239188
vt 0.834067 0.567861
vt 0.797254 0.581307
vt 0.422799 0.276318
vt 0.445425 0.277698
vt 0.848919 0.605054
vt 0.815788 0.617155
vt 0.426762 0.309889
vt 0.455560 0.311644
vt 0.863137 0.638264
vt 0.834961 0.648555
vt 0.736769 0.386468
vt 0.762565 0.344655
vt 0.769901 0.374367
vt 0.141200 0.332991
vt 0.104391 0.301906
vt 0.127017 0.300526
vt 0.742824 0.422407
vt 0.779638 0.408961
vt 0.098861 0.264218
vt 0.114446 0.263268
vt 0.752323 0.461382
vt 0.791404 0.447108
vt 0.804746 0.487341
vt 0.424061 0.197112
vt 0.429238 0.154519
vt 0.088131 0.221964
vt 0.845657 0.473327
vt 0.439899 0.196428
vt 0.859276 0.514370
vt 0.452954 0.236898
vt 0.871864 0.554915
vt 0.467901 0.274372
vt 0.882935 0.593403
vt 0.484167 0.307411
vt 0.892065 0.628355
vt 0.803916 0.362715
vt 0.876175 0.666215
vt 0.898903 0.658429
vt 0.817434 0.396014
vt 0.081915 0.298580
vt 0.083379 0.261927
vt 0.831528 0.433364
vt 0.511484 0.297353
vt 0.916528 0.582648
vt 0.920633 0.619209
vt 0.533246 0.322919
vt 0.501125 0.334746
vt 0.921349 0.651243
vt 0.854761 0.384065
vt 0.068595 0.256484
vt 0.871154 0.420678
vt 0.080594 0.219189
vt 0.886058 0.460393
vt 0.447436 0.193653
vt 0.898902 0.501684
vt 0.467738 0.231454
vt 0.909190 0.542965
vt 0.489365 0.266469
vt 0.908757 0.409538
vt 0.924399 0.449035
vt 0.454327 0.189378
vt 0.073703 0.214914
vt 0.936505 0.490544
vt 0.481256 0.223067
vt 0.944612 0.532471
vt 0.508989 0.254293
vt 0.948407 0.573204
vt 0.536462 0.281856
vt 0.947744 0.611178
vt 0.562617 0.304696
vt 0.942650 0.644933
vt 0.837509 0.351961
vt 0.890182 0.373571
vt 0.060452 0.290677
vt 0.055077 0.248097
vt 0.972355 0.604569
vt 0.558140 0.261515
vt 0.588108 0.280778
vt 0.961987 0.639741
vt 0.869388 0.342517
vt 0.922339 0.364937
vt 0.023795 0.262519
vt 0.043345 0.237089
vt 0.942894 0.400371
vt 0.067722 0.209302
vt 0.959204 0.439689
vt 0.460308 0.183766
vt 0.970642 0.481378
vt 0.492988 0.212059
vt 0.976768 0.523837
vt 0.526022 0.238311
vt 0.977346 0.565433
vt 0.062881 0.202569
vt 1.000000 0.474538
vt 0.502484 0.198852
vt 0.141315 0.672511
vt 0.174622 0.634557
vt 0.183167 0.662808
vt 0.539808 0.219139
vt 0.223430 0.647050
vt 0.215740 0.621625
vt 0.575686 0.237113
vt 0.254016 0.604222
vt 0.260557 0.625843
vt 0.608740 0.252084
vt 0.287981 0.583015
vt 0.293120 0.600003
vt 0.637699 0.263476
vt 0.614774 0.295359
vt 0.033849 0.223882
vt 0.949993 0.358493
vt 0.972252 0.393531
vt 0.989137 0.432715
vt 0.465149 0.177033
vt 0.248877 0.578797
vt 0.283944 0.563039
vt 0.654343 0.227511
vt 0.000000 0.221719
vt 0.026955 0.208985
vt 0.050205 0.642521
vt 0.006982 0.601338
vt 0.043077 0.607256
vt 0.059366 0.194974
vt 0.090233 0.645210
vt 0.082966 0.609254
vt 0.468664 0.169439
vt 0.125116 0.607256
vt 0.132244 0.642521
vt 0.509378 0.183955
vt 0.167908 0.601338
vt 0.549817 0.197511
vt 0.209697 0.591729
vt 0.588425 0.209586
vt 0.623719 0.219716
vt 0.470717 0.161274
vt 0.513406 0.167940
vt 0.163283 0.564427
vt 0.555664 0.174261
vt 0.205535 0.558510
vt 0.595868 0.179994
vt 0.245338 0.550546
vt 0.632471 0.184919
vt 0.281163 0.540843
vt 0.664068 0.188847
vt 0.311632 0.529772
vt 0.313548 0.545061
vt 0.002358 0.564427
vt 0.038167 0.568071
vt 0.057313 0.186810
vt 0.077960 0.569302
vt 0.120206 0.568071
vt 0.666499 0.148969
vt 0.310655 0.513541
vt -0.000000 0.525243
vt 0.035664 0.526473
vt 0.022927 0.192970
vt 0.056799 0.178389
vt 0.075408 0.526889
vt 0.471231 0.152853
vt 0.117703 0.526473
vt 0.514413 0.151422
vt 0.160925 0.525243
vt 0.557126 0.150280
vt 0.203413 0.523245
vt 0.597728 0.149473
vt 0.243533 0.520556
vt 0.634659 0.149030
vt 0.279745 0.517279
vt 0.160925 0.485291
vt 0.512360 0.135036
vt 0.554146 0.126491
vt 0.203413 0.487289
vt 0.593935 0.119195
vt 0.243533 0.489978
vt 0.630198 0.113427
vt 0.279745 0.493254
vt 0.661542 0.109409
vt 0.310655 0.496993
vt 0.000000 0.485291
vt 0.035664 0.484060
vt 0.023973 0.160066
vt 0.057846 0.170036
vt 0.075408 0.483645
vt 0.470184 0.144500
vt 0.117703 0.484060
vt 0.311632 0.480762
vt 0.002358 0.446106
vt 0.038167 0.442462
vt 0.060412 0.162070
vt 0.077960 0.441232
vt 0.467618 0.136534
vt 0.120206 0.442462
vt 0.507326 0.119411
vt 0.163283 0.446106
vt 0.546838 0.103809
vt 0.205535 0.452024
vt 0.584633 0.090325
vt 0.245338 0.459987
vt 0.619261 0.079480
vt 0.281163 0.469691
vt 0.649389 0.071689
vt 0.535483 0.083103
vt 0.167908 0.409195
vt 0.209697 0.418805
vt 0.570181 0.063973
vt 0.248878 0.431737
vt 0.602267 0.048492
vt 0.283944 0.447495
vt 0.630507 0.037258
vt 0.029007 0.144441
vt 0.014334 0.107311
vt 0.036828 0.130179
vt 0.006982 0.409195
vt 0.043077 0.403278
vt 0.064400 0.154800
vt 0.082966 0.401280
vt 0.463630 0.129264
vt 0.125116 0.403278
vt 0.499505 0.105149
vt 0.013697 0.375977
vt 0.050205 0.368013
vt 0.069655 0.148503
vt 0.090233 0.365324
vt 0.458375 0.122967
vt 0.132244 0.368013
vt 0.489197 0.092798
vt 0.174622 0.375977
vt 0.520517 0.065171
vt 0.215740 0.388909
vt 0.551134 0.041149
vt 0.254016 0.406312
vt 0.579870 0.021655
vt 0.287981 0.427519
vt 0.605621 0.007438
vt 0.047137 0.117827
vt 0.183167 0.347726
vt 0.223430 0.363484
vt 0.528224 0.022733
vt 0.260557 0.384690
vt 0.552930 -0.000000
vt 0.293120 0.410531
vt 0.733970 0.017178
vt 0.732140 0.061072
vt 0.706343 0.049206
vt 0.029299 0.089379
vt 0.059536 0.107861
vt 0.683560 0.085773
vt 0.710947 0.098369
vt 0.075976 0.143422
vt 0.666499 0.125472
vt 0.694421 0.138316
vt 0.452054 0.117886
vt 0.141315 0.338022
vt 0.476798 0.082831
vt 0.502517 0.050702
vt 0.083120 0.139752
vt 0.743534 0.112058
vt 0.727647 0.152273
vt 0.444910 0.114216
vt 0.715787 0.193065
vt 0.683199 0.179376
vt 0.462784 0.075632
vt 0.708408 0.232867
vt 0.677711 0.219972
vt 0.482172 0.040251
vt 0.678169 0.258544
vt 0.705795 0.270149
vt 0.502330 0.009431
vt 0.268247 0.367702
vt 0.757187 0.027857
vt 0.808620 0.009869
vt 0.784814 0.039462
vt 0.047300 0.074910
vt 0.065632 0.032533
vt 0.067644 0.064459
vt 0.762837 0.073967
vt 0.073549 0.100662
vt 0.734389 0.313757
vt 0.708048 0.303479
vt 0.834961 0.020147
vt 0.815788 0.051547
vt 0.093513 0.024857
vt 0.089550 0.058428
vt 0.797254 0.087395
vt 0.088638 0.096508
vt 0.780071 0.126314
vt 0.090812 0.137634
vt 0.764899 0.166808
vt 0.437218 0.112098
vt 0.752323 0.207321
vt 0.447695 0.071478
vt 0.742824 0.246295
vt 0.460267 0.034220
vt 0.736769 0.282234
vt 0.474449 0.001755
vt 0.429273 0.111614
vt 0.098757 0.137150
vt 0.791404 0.221595
vt 0.432110 0.070528
vt 0.779638 0.259741
vt 0.437641 0.032840
vt 0.769901 0.294335
vt 0.445652 -0.000000
vt 0.762565 0.324048
vt 0.863137 0.030438
vt 0.848919 0.063648
vt 0.122311 0.023102
vt 0.112176 0.057048
vt 0.834067 0.100841
vt 0.104223 0.095558
vt 0.819152 0.140588
vt 0.804746 0.181362
vt 0.892065 0.040347
vt 0.882935 0.075299
vt 0.150918 0.027335
vt 0.134652 0.060374
vt 0.871864 0.113788
vt 0.119705 0.097848
vt 0.859276 0.154332
vt 0.106650 0.138318
vt 0.845657 0.195375
vt 0.421380 0.112782
vt 0.831529 0.235339
vt 0.416628 0.072819
vt 0.817434 0.272688
vt 0.415164 0.036166
vt 0.803916 0.305987
vt 0.876175 0.002488
vt 0.791493 0.333956
vt 0.871154 0.248025
vt 0.413843 0.115557
vt 0.401844 0.078262
vt 0.854761 0.284638
vt 0.393701 0.044069
vt 0.837509 0.316741
vt 0.898903 0.010273
vt 0.920634 0.049493
vt 0.167875 0.000000
vt 0.178235 0.037393
vt 0.916528 0.086054
vt 0.156115 0.068277
vt 0.909190 0.125737
vt 0.134489 0.103292
vt 0.898902 0.167018
vt 0.114187 0.141093
vt 0.886058 0.208309
vt 0.203212 0.052890
vt 0.175740 0.080453
vt 0.944612 0.136231
vt 0.148007 0.111679
vt 0.936505 0.178158
vt 0.121078 0.145368
vt 0.924399 0.219668
vt 0.406952 0.119832
vt 0.908757 0.259165
vt 0.388326 0.086649
vt 0.890183 0.295131
vt 0.374076 0.056245
vt 0.869388 0.326186
vt 0.921349 0.017459
vt 0.947744 0.057524
vt 0.199997 0.011827
vt 0.948407 0.095498
vt 0.376594 0.097657
vt 0.922339 0.303766
vt 0.357044 0.072227
vt 0.898328 0.333956
vt 0.942650 0.023769
vt 0.972355 0.064133
vt 0.229368 0.030050
vt 0.224891 0.073231
vt 0.977346 0.103269
vt 0.192773 0.096435
vt 0.976768 0.144865
vt 0.159739 0.122687
vt 0.970642 0.187324
vt 0.127059 0.150980
vt 0.959204 0.229013
vt 0.400971 0.125444
vt 0.942894 0.268331
vt 0.576381 0.360207
vt 0.527573 0.372700
vt 0.536118 0.344450
vt 0.169235 0.135894
vt 0.494266 0.334746
vt 0.485194 0.364736
vt 0.131900 0.157713
vt 1.000000 0.194164
vt 0.989137 0.235988
vt 0.396130 0.132177
vt 0.972252 0.275171
vt 0.367098 0.110864
vt 0.949993 0.310209
vt 0.343258 0.091399
vt 0.254859 0.053968
vt 0.304450 0.071270
vt 0.275490 0.082662
vt 0.646071 0.407254
vt 0.606967 0.403036
vt 0.613508 0.381414
vt 0.242437 0.097633
vt 0.568690 0.385632
vt 0.206558 0.115607
vt 0.403155 0.364736
vt 0.359933 0.405919
vt 0.366648 0.372700
vt 0.333249 0.113027
vt 0.321094 0.107235
vt 0.290470 0.115030
vt 0.640932 0.424242
vt 0.601828 0.428460
vt 0.255176 0.125160
vt 0.562648 0.415528
vt 0.216567 0.137235
vt 0.520859 0.405919
vt 0.176129 0.150791
vt 0.478067 0.400001
vt 0.135415 0.165307
vt 0.443184 0.362048
vt 0.435917 0.398004
vt 0.392615 0.139771
vt 0.396028 0.400001
vt 0.360204 0.125761
vt 0.180157 0.166806
vt 0.516234 0.442830
vt 0.473157 0.439186
vt 0.137468 0.173472
vt 0.430911 0.437956
vt 0.390562 0.147936
vt 0.391118 0.439186
vt 0.356176 0.141776
vt 0.355309 0.442830
vt 0.636894 0.444218
vt 0.664583 0.477485
vt 0.634113 0.466415
vt 0.330819 0.145899
vt 0.299222 0.149827
vt 0.598289 0.456711
vt 0.262618 0.154752
vt 0.558486 0.448747
vt 0.222415 0.160485
vt 0.333249 0.185777
vt 0.301409 0.185716
vt 0.596484 0.486701
vt 0.264479 0.185273
vt 0.556364 0.484012
vt 0.223877 0.184466
vt 0.513876 0.482014
vt 0.181164 0.183324
vt 0.470654 0.480784
vt 0.137981 0.181893
vt 0.428359 0.480369
vt 0.390049 0.156357
vt 0.388615 0.480784
vt 0.355169 0.158294
vt 0.352951 0.482014
vt 0.663606 0.493716
vt 0.632696 0.489978
vt 0.136935 0.190246
vt 0.470654 0.523197
vt 0.428359 0.523612
vt 0.391095 0.164710
vt 0.388615 0.523197
vt 0.357222 0.174680
vt 0.352951 0.521966
vt 0.663606 0.510265
vt 0.632696 0.514003
vt 0.328293 0.225337
vt 0.296949 0.221319
vt 0.596484 0.517279
vt 0.260685 0.215551
vt 0.556364 0.519968
vt 0.220896 0.208255
vt 0.513876 0.521966
vt 0.179111 0.199710
vt 0.598289 0.547270
vt 0.251384 0.244421
vt 0.558486 0.555233
vt 0.213588 0.230937
vt 0.516234 0.561151
vt 0.174077 0.215334
vt 0.473157 0.564795
vt 0.134368 0.198211
vt 0.430911 0.566025
vt 0.393662 0.172675
vt 0.391118 0.564795
vt 0.362256 0.190305
vt 0.355309 0.561151
vt 0.634113 0.537566
vt 0.316140 0.263057
vt 0.286011 0.255266
vt 0.478067 0.603979
vt 0.435917 0.605977
vt 0.397649 0.179946
vt 0.130381 0.205482
vt 0.396028 0.603979
vt 0.370077 0.204567
vt 0.359933 0.598062
vt 0.336228 0.206729
vt 0.347583 0.227435
vt 0.297258 0.297488
vt 0.269018 0.286254
vt 0.601828 0.575520
vt 0.236932 0.270773
vt 0.562648 0.588452
vt 0.202233 0.251643
vt 0.520859 0.598062
vt 0.166256 0.229596
vt 0.217885 0.293596
vt 0.606967 0.600945
vt 0.568691 0.618349
vt 0.187268 0.269575
vt 0.527573 0.631281
vt 0.155947 0.241948
vt 0.485195 0.639244
vt 0.125126 0.211779
vt 0.443184 0.641933
vt 0.402904 0.186243
vt 0.403155 0.639244
vt 0.380386 0.216918
vt 0.366648 0.631281
vt 0.362549 0.245367
vt 0.272371 0.327308
vt 0.246620 0.313091
vt 0.636894 0.559762
vt 0.409225 0.191324
vt 0.118805 0.216860
vt 0.666499 0.543230
vt 0.710947 0.570333
vt 0.683560 0.582930
vt 0.392785 0.226885
vt 0.732140 0.607631
vt 0.706343 0.619496
vt 0.380549 0.259836
vt 0.733970 0.651525
vt 0.757187 0.640846
vt 0.640932 0.579738
vt 0.613508 0.622567
vt 0.194974 0.312013
vt 0.576381 0.643773
vt 0.169267 0.284044
vt 0.536118 0.659531
vt 0.143548 0.251915
vt 0.494266 0.669235
vt 0.452433 0.672511
vt 0.621198 0.639555
vt 0.585425 0.663749
vt 0.169081 0.325315
vt 0.148923 0.294495
vt 0.678169 0.410158
vt 0.708408 0.435835
vt 0.677711 0.448730
vt 0.129535 0.259114
vt 0.683199 0.489326
vt 0.715787 0.475637
vt 0.111661 0.220530
vt 0.694421 0.530387
vt 0.727647 0.516429
vt 0.416369 0.194994
vt 0.743534 0.556644
vt 0.406798 0.234084
vt 0.762837 0.594736
vt 0.400893 0.270287
vt 0.784814 0.629241
vt 0.398881 0.302213
vt 0.372988 0.288911
vt 0.808620 0.658833
vt 0.785126 0.668702
vt 0.705795 0.398553
vt 0.734389 0.354946
vt 0.112403 0.334746
vt 0.791493 0.334746
vt 0.040827 0.278501
vt 0.898328 0.334746
vt 0.010009 0.243347
vt 0.013697 0.634557
vt 0.021920 0.176452
vt 0.002979 0.128016
vt 0.099483 0.334746
vt 0.232474 0.343508
vt 0.785126 -0.000000
vt 0.039739 0.045835
vt 0.961987 0.028962
vt 0.281525 0.039387
vt 0.666499 0.462196
vt 0.664583 0.526495
vt 0.646071 0.596727
vt 0.219681 0.334746
vt 0.708048 0.365223
s 0
f 308/1/1 482/2/1 21/3/1
f 4/4/2 15/5/2 5/6/2
f 475/7/3 7/8/3 8/9/3
f 5/6/4 16/10/4 478/11/4
f 1/12/5 8/9/5 9/13/5
f 478/11/6 17/14/6 6/15/6
f 476/16/7 9/13/7 10/17/7
f 6/15/8 18/18/8 479/19/8
f 2/20/9 10/21/9 11/22/9
f 479/23/10 19/24/10 480/25/10
f 477/26/11 11/22/11 12/27/11
f 480/25/12 20/28/12 481/29/12
f 3/30/13 12/27/13 13/31/13
f 481/29/14 21/3/14 482/2/14
f 3/30/15 14/32/15 4/4/15
f 474/33/16 82/34/16 7/8/16
f 20/28/17 36/35/17 21/3/17
f 13/31/18 29/36/18 14/32/18
f 7/8/19 82/34/19 22/37/19
f 308/1/20 21/3/20 36/35/20
f 14/32/21 30/38/21 15/5/21
f 7/8/22 23/39/22 8/9/22
f 15/5/23 31/40/23 16/10/23
f 8/9/24 24/41/24 9/13/24
f 16/10/25 32/42/25 17/14/25
f 9/13/26 25/43/26 10/17/26
f 17/14/27 33/44/27 18/18/27
f 10/21/28 26/45/28 11/22/28
f 19/46/29 33/44/29 34/47/29
f 11/22/30 27/48/30 12/27/30
f 20/28/31 34/49/31 35/50/31
f 13/31/32 27/48/32 28/51/32
f 24/41/33 40/52/33 25/43/33
f 33/44/34 47/53/34 48/54/34
f 25/43/35 41/55/35 26/56/35
f 34/47/36 48/54/36 49/57/36
f 26/45/37 42/58/37 27/48/37
f 34/49/38 50/59/38 35/50/38
f 27/48/39 43/60/39 28/51/39
f 35/50/40 51/61/40 36/35/40
f 28/51/41 44/62/41 29/36/41
f 22/37/42 82/34/42 37/63/42
f 308/1/43 36/35/43 51/61/43
f 30/38/44 44/62/44 45/64/44
f 22/37/45 38/65/45 23/39/45
f 30/38/46 46/66/46 31/40/46
f 23/39/47 39/67/47 24/41/47
f 32/42/48 46/66/48 47/53/48
f 44/62/49 58/68/49 59/69/49
f 37/63/50 82/34/50 52/70/50
f 308/1/51 51/61/51 66/71/51
f 44/62/52 60/72/52 45/64/52
f 37/63/53 53/73/53 38/65/53
f 45/64/54 61/74/54 46/66/54
f 38/65/55 54/75/55 39/67/55
f 47/53/56 61/74/56 62/76/56
f 39/67/57 55/77/57 40/52/57
f 47/53/58 63/78/58 48/54/58
f 40/52/59 56/79/59 41/55/59
f 48/54/60 64/80/60 49/57/60
f 41/81/61 57/82/61 42/58/61
f 49/83/62 65/84/62 50/59/62
f 43/60/63 57/82/63 58/68/63
f 50/59/64 66/71/64 51/61/64
f 62/76/65 78/85/65 63/78/65
f 56/79/66 70/86/66 71/87/66
f 63/78/67 79/88/67 64/80/67
f 56/89/68 72/90/68 57/82/68
f 65/84/69 79/91/69 80/92/69
f 58/68/70 72/90/70 73/93/70
f 65/84/71 81/94/71 66/71/71
f 59/69/72 73/93/72 74/95/72
f 52/70/73 82/34/73 67/96/73
f 308/1/74 66/71/74 81/94/74
f 59/69/75 75/97/75 60/72/75
f 52/70/76 68/98/76 53/73/76
f 60/72/77 76/99/77 61/74/77
f 53/73/78 69/100/78 54/75/78
f 62/76/79 76/99/79 77/101/79
f 54/75/80 70/86/80 55/77/80
f 308/1/81 81/94/81 97/102/81
f 74/95/82 91/103/82 75/97/82
f 67/96/83 84/104/83 68/98/83
f 75/105/84 92/106/84 76/107/84
f 68/98/85 85/108/85 69/100/85
f 77/109/86 92/106/86 93/110/86
f 69/100/87 86/111/87 70/86/87
f 77/109/88 94/112/88 78/113/88
f 71/87/89 86/111/89 87/114/89
f 78/113/90 95/115/90 79/116/90
f 71/87/91 88/117/91 72/118/91
f 79/91/92 96/119/92 80/92/92
f 73/93/93 88/120/93 89/121/93
f 81/94/94 96/119/94 97/102/94
f 74/95/95 89/121/95 90/122/95
f 67/96/96 82/34/96 83/123/96
f 95/115/97 109/124/97 110/125/97
f 87/114/98 103/126/98 88/117/98
f 96/119/99 110/127/99 111/128/99
f 89/129/100 103/130/100 104/131/100
f 96/119/101 112/132/101 97/102/101
f 90/133/102 104/131/102 105/134/102
f 83/123/103 82/34/103 98/135/103
f 308/1/104 97/102/104 112/132/104
f 90/133/105 106/136/105 91/137/105
f 84/104/106 98/135/106 99/138/106
f 91/137/107 107/139/107 92/106/107
f 84/104/108 100/140/108 85/108/108
f 93/110/109 107/139/109 108/141/109
f 85/108/110 101/142/110 86/111/110
f 93/110/111 109/124/111 94/112/111
f 87/114/112 101/142/112 102/143/112
f 99/138/113 113/144/113 114/145/113
f 106/136/114 122/146/114 107/139/114
f 99/138/115 115/147/115 100/140/115
f 108/141/116 122/146/116 123/148/116
f 100/140/117 116/149/117 101/142/117
f 108/141/118 124/150/118 109/124/118
f 102/143/119 116/149/119 117/151/119
f 110/125/120 124/150/120 125/152/120
f 102/143/121 118/153/121 103/126/121
f 110/125/122 126/154/122 111/155/122
f 104/131/123 118/156/123 119/157/123
f 111/128/124 127/158/124 112/132/124
f 105/134/125 119/157/125 120/159/125
f 98/135/126 82/34/126 113/144/126
f 308/1/127 112/132/127 127/158/127
f 105/134/128 121/160/128 106/136/128
f 117/151/129 133/161/129 118/153/129
f 125/152/130 141/162/130 126/154/130
f 119/157/131 133/163/131 134/164/131
f 126/165/132 142/166/132 127/158/132
f 120/159/133 134/164/133 135/167/133
f 113/144/134 82/34/134 128/168/134
f 308/1/135 127/158/135 142/166/135
f 120/159/136 136/169/136 121/160/136
f 113/144/137 129/170/137 114/145/137
f 121/160/138 137/171/138 122/146/138
f 114/145/139 130/172/139 115/147/139
f 123/148/140 137/171/140 138/173/140
f 115/147/141 131/174/141 116/149/141
f 123/148/142 139/175/142 124/150/142
f 117/151/143 131/174/143 132/176/143
f 125/152/144 139/175/144 140/177/144
f 136/169/145 152/178/145 137/171/145
f 130/172/146 144/179/146 145/180/146
f 138/173/147 152/178/147 153/181/147
f 130/172/148 146/182/148 131/174/148
f 138/173/149 154/183/149 139/175/149
f 132/176/150 146/182/150 147/184/150
f 140/177/151 154/183/151 155/185/151
f 132/176/152 148/186/152 133/161/152
f 140/177/153 156/187/153 141/162/153
f 134/164/154 148/188/154 149/189/154
f 142/166/155 156/190/155 157/191/155
f 135/167/156 149/189/156 150/192/156
f 128/168/157 82/34/157 143/193/157
f 308/1/158 142/166/158 157/191/158
f 135/167/159 151/194/159 136/169/159
f 128/168/160 144/179/160 129/170/160
f 155/185/161 171/195/161 156/187/161
f 149/189/162 163/196/162 164/197/162
f 156/190/163 172/198/163 157/191/163
f 150/192/164 164/197/164 165/199/164
f 143/193/165 82/34/165 158/200/165
f 308/1/166 157/191/166 172/198/166
f 150/192/167 166/201/167 151/194/167
f 143/193/168 159/202/168 144/179/168
f 151/194/169 167/203/169 152/178/169
f 145/180/170 159/202/170 160/204/170
f 153/181/171 167/203/171 168/205/171
f 145/180/172 161/206/172 146/182/172
f 153/181/173 169/207/173 154/183/173
f 147/184/174 161/206/174 162/208/174
f 155/185/175 169/207/175 170/209/175
f 147/184/176 163/210/176 148/186/176
f 159/202/177 175/211/177 160/204/177
f 168/205/178 182/212/178 183/213/178
f 160/204/179 176/214/179 161/206/179
f 168/205/180 184/215/180 169/207/180
f 162/208/181 176/214/181 177/216/181
f 169/207/182 185/217/182 170/209/182
f 162/208/183 178/218/183 163/210/183
f 171/219/184 185/220/184 186/221/184
f 164/197/185 178/222/185 179/223/185
f 172/198/186 186/221/186 187/224/186
f 165/199/187 179/223/187 180/225/187
f 158/200/188 82/34/188 173/226/188
f 308/1/189 172/198/189 187/224/189
f 165/199/190 181/227/190 166/201/190
f 158/200/191 174/228/191 159/202/191
f 166/201/192 182/212/192 167/203/192
f 179/223/193 193/229/193 194/230/193
f 186/221/194 202/231/194 187/224/194
f 180/225/195 194/230/195 195/232/195
f 173/226/196 82/34/196 188/233/196
f 308/1/197 187/224/197 202/231/197
f 180/225/198 196/234/198 181/227/198
f 174/228/199 188/233/199 189/235/199
f 181/227/200 197/236/200 182/212/200
f 175/211/201 189/235/201 190/237/201
f 183/213/202 197/236/202 198/238/202
f 175/211/203 191/239/203 176/214/203
f 183/213/204 199/240/204 184/215/204
f 177/216/205 191/239/205 192/241/205
f 185/217/206 199/240/206 200/242/206
f 177/216/207 193/243/207 178/218/207
f 185/220/208 201/244/208 186/221/208
f 198/238/209 212/245/209 213/246/209
f 190/237/210 206/247/210 191/239/210
f 198/238/211 214/248/211 199/240/211
f 192/241/212 206/247/212 207/249/212
f 200/242/213 214/248/213 215/250/213
f 192/251/214 208/252/214 193/253/214
f 200/254/215 216/255/215 201/244/215
f 194/256/216 208/252/216 209/257/216
f 201/244/217 217/258/217 202/231/217
f 195/259/218 209/257/218 210/260/218
f 188/233/219 82/34/219 203/261/219
f 308/1/220 202/231/220 217/258/220
f 195/232/221 211/262/221 196/234/221
f 188/233/222 204/263/222 189/235/222
f 196/234/223 212/245/223 197/236/223
f 189/235/224 205/264/224 190/237/224
f 216/255/225 232/265/225 217/258/225
f 210/260/226 224/266/226 225/267/226
f 203/261/227 82/34/227 218/268/227
f 308/1/228 217/258/228 232/265/228
f 210/260/229 226/269/229 211/270/229
f 203/261/230 219/271/230 204/263/230
f 211/270/231 227/272/231 212/273/231
f 204/263/232 220/274/232 205/264/232
f 213/275/233 227/272/233 228/276/233
f 205/264/234 221/277/234 206/247/234
f 213/246/235 229/278/235 214/248/235
f 207/279/236 221/280/236 222/281/236
f 215/282/237 229/283/237 230/284/237
f 207/279/238 223/285/238 208/252/238
f 215/282/239 231/286/239 216/255/239
f 209/257/240 223/285/240 224/266/240
f 228/276/241 244/287/241 229/288/241
f 222/281/242 236/289/242 237/290/242
f 230/284/243 244/291/243 245/292/243
f 222/281/244 238/293/244 223/285/244
f 230/284/245 246/294/245 231/286/245
f 224/266/246 238/293/246 239/295/246
f 232/265/247 246/294/247 247/296/247
f 225/267/248 239/295/248 240/297/248
f 218/268/249 82/34/249 233/298/249
f 308/1/250 232/265/250 247/296/250
f 225/267/251 241/299/251 226/269/251
f 218/268/252 234/300/252 219/271/252
f 226/269/253 242/301/253 227/272/253
f 220/274/254 234/300/254 235/302/254
f 228/276/255 242/301/255 243/303/255
f 220/274/256 236/304/256 221/277/256
f 233/298/257 82/34/257 248/305/257
f 308/1/258 247/296/258 262/306/258
f 240/297/259 256/307/259 241/299/259
f 233/298/260 249/308/260 234/300/260
f 241/299/261 257/309/261 242/301/261
f 234/300/262 250/310/262 235/302/262
f 243/303/263 257/309/263 258/311/263
f 235/302/264 251/312/264 236/304/264
f 243/303/265 259/313/265 244/287/265
f 237/290/266 251/314/266 252/315/266
f 245/292/267 259/316/267 260/317/267
f 237/290/268 253/318/268 238/293/268
f 245/292/269 261/319/269 246/294/269
f 239/295/270 253/318/270 254/320/270
f 246/294/271 262/306/271 247/296/271
f 240/297/272 254/320/272 255/321/272
f 252/315/273 266/322/273 267/323/273
f 260/317/274 274/324/274 275/325/274
f 252/315/275 268/326/275 253/318/275
f 260/317/276 276/327/276 261/319/276
f 254/320/277 268/326/277 269/328/277
f 261/319/278 277/329/278 262/306/278
f 255/321/279 269/328/279 270/330/279
f 248/305/280 82/34/280 263/331/280
f 308/1/281 262/306/281 277/329/281
f 255/321/282 271/332/282 256/307/282
f 249/308/283 263/331/283 264/333/283
f 256/307/284 272/334/284 257/309/284
f 249/308/285 265/335/285 250/310/285
f 258/311/286 272/334/286 273/336/286
f 250/337/287 266/322/287 251/314/287
f 258/311/288 274/338/288 259/313/288
f 270/330/289 286/339/289 271/332/289
f 264/333/290 278/340/290 279/341/290
f 271/332/291 287/342/291 272/334/291
f 264/333/292 280/343/292 265/335/292
f 273/336/293 287/342/293 288/344/293
f 265/345/294 281/346/294 266/322/294
f 273/347/295 289/348/295 274/324/295
f 267/323/296 281/346/296 282/349/296
f 275/325/297 289/348/297 290/350/297
f 267/323/298 283/351/298 268/326/298
f 275/325/299 291/352/299 276/327/299
f 269/328/300 283/351/300 284/353/300
f 277/329/301 291/352/301 292/354/301
f 270/330/302 284/353/302 285/355/302
f 263/331/303 82/34/303 278/340/303
f 308/1/304 277/329/304 292/354/304
f 290/350/305 304/356/305 305/357/305
f 282/349/306 298/358/306 283/351/306
f 290/350/307 306/359/307 291/352/307
f 284/353/308 298/358/308 299/360/308
f 292/354/309 306/359/309 307/361/309
f 285/355/310 299/360/310 300/362/310
f 278/340/311 82/34/311 293/363/311
f 308/1/312 292/354/312 307/361/312
f 285/355/313 301/364/313 286/339/313
f 278/340/314 294/365/314 279/341/314
f 286/339/315 302/366/315 287/342/315
f 279/341/316 295/367/316 280/343/316
f 288/344/317 302/366/317 303/368/317
f 280/369/318 296/370/318 281/346/318
f 288/371/319 304/356/319 289/348/319
f 282/349/320 296/370/320 297/372/320
f 293/363/321 310/373/321 294/365/321
f 301/364/322 318/374/322 302/366/322
f 294/365/323 311/375/323 295/367/323
f 303/368/324 318/374/324 319/376/324
f 295/377/325 312/378/325 296/370/325
f 303/379/326 320/380/326 304/356/326
f 297/372/327 312/378/327 313/381/327
f 305/357/328 320/380/328 321/382/328
f 297/372/329 314/383/329 298/358/329
f 305/357/330 322/384/330 306/359/330
f 299/360/331 314/383/331 315/385/331
f 306/359/332 323/386/332 307/361/332
f 300/362/333 315/385/333 316/387/333
f 293/363/334 82/34/334 309/388/334
f 308/1/335 307/361/335 323/386/335
f 300/362/336 317/389/336 301/364/336
f 313/390/337 329/391/337 314/392/337
f 321/382/338 337/393/338 322/384/338
f 315/394/339 329/391/339 330/395/339
f 322/384/340 338/396/340 323/386/340
f 316/387/341 330/397/341 331/398/341
f 309/388/342 82/34/342 324/399/342
f 308/1/343 323/386/343 338/396/343
f 316/387/344 332/400/344 317/389/344
f 309/388/345 325/401/345 310/373/345
f 317/389/346 333/402/346 318/374/346
f 310/373/347 326/403/347 311/375/347
f 319/404/348 333/405/348 334/406/348
f 311/407/349 327/408/349 312/409/349
f 319/404/350 335/410/350 320/380/350
f 312/409/351 328/411/351 313/390/351
f 321/382/352 335/410/352 336/412/352
f 332/413/353 348/414/353 333/415/353
f 325/401/354 341/416/354 326/403/354
f 334/406/355 348/417/355 349/418/355
f 326/419/356 342/420/356 327/408/356
f 334/406/357 350/421/357 335/410/357
f 328/411/358 342/420/358 343/422/358
f 336/412/359 350/421/359 351/423/359
f 328/411/360 344/424/360 329/391/360
f 336/412/361 352/425/361 337/393/361
f 330/395/362 344/424/362 345/426/362
f 337/393/363 353/427/363 338/396/363
f 331/428/364 345/426/364 346/429/364
f 324/399/365 82/34/365 339/430/365
f 308/1/366 338/396/366 353/427/366
f 331/428/367 347/431/367 332/413/367
f 324/399/368 340/432/368 325/401/368
f 351/423/369 367/433/369 352/425/369
f 345/426/370 359/434/370 360/435/370
f 352/425/371 368/436/371 353/427/371
f 346/429/372 360/435/372 361/437/372
f 339/430/373 82/34/373 354/438/373
f 308/1/374 353/427/374 368/436/374
f 346/429/375 362/439/375 347/431/375
f 339/430/376 355/440/376 340/432/376
f 347/431/377 363/441/377 348/414/377
f 341/442/378 355/443/378 356/444/378
f 349/418/379 363/445/379 364/446/379
f 341/442/380 357/447/380 342/420/380
f 349/418/381 365/448/381 350/421/381
f 343/422/382 357/447/382 358/449/382
f 351/423/383 365/448/383 366/450/383
f 343/422/384 359/434/384 344/424/384
f 364/446/385 378/451/385 379/452/385
f 356/444/386 372/453/386 357/447/386
f 364/446/387 380/454/387 365/448/387
f 358/449/388 372/453/388 373/455/388
f 366/450/389 380/454/389 381/456/389
f 358/449/390 374/457/390 359/434/390
f 366/450/391 382/458/391 367/433/391
f 360/435/392 374/457/392 375/459/392
f 367/433/393 383/460/393 368/436/393
f 361/437/394 375/459/394 376/461/394
f 354/438/395 82/34/395 369/462/395
f 308/1/396 368/436/396 383/460/396
f 361/437/397 377/463/397 362/439/397
f 354/438/398 370/464/398 355/440/398
f 362/439/399 378/465/399 363/441/399
f 356/444/400 370/466/400 371/467/400
f 382/458/401 398/468/401 383/460/401
f 376/461/402 390/469/402 391/470/402
f 369/462/403 82/34/403 384/471/403
f 308/1/404 383/460/404 398/468/404
f 376/461/405 392/472/405 377/463/405
f 369/462/406 385/473/406 370/464/406
f 377/463/407 393/474/407 378/465/407
f 371/467/408 385/475/408 386/476/408
f 379/452/409 393/477/409 394/478/409
f 371/467/410 387/479/410 372/453/410
f 379/452/411 395/480/411 380/454/411
f 373/455/412 387/479/412 388/481/412
f 381/456/413 395/480/413 396/482/413
f 373/455/414 389/483/414 374/457/414
f 381/456/415 397/484/415 382/458/415
f 375/459/416 389/483/416 390/469/416
f 386/476/417 402/485/417 387/479/417
f 394/478/418 410/486/418 395/480/418
f 388/481/419 402/485/419 403/487/419
f 396/482/420 410/486/420 411/488/420
f 388/481/421 404/489/421 389/483/421
f 397/484/422 411/488/422 412/490/422
f 390/469/423 404/489/423 405/491/423
f 397/484/424 413/492/424 398/468/424
f 391/470/425 405/491/425 406/493/425
f 384/471/426 82/34/426 399/494/426
f 308/1/427 398/468/427 413/492/427
f 391/470/428 407/495/428 392/472/428
f 385/473/429 399/494/429 400/496/429
f 392/472/430 408/497/430 393/474/430
f 385/475/431 401/498/431 386/476/431
f 394/478/432 408/499/432 409/500/432
f 406/493/433 420/501/433 421/502/433
f 399/494/434 82/34/434 414/503/434
f 308/1/435 413/492/435 428/504/435
f 406/493/436 422/505/436 407/495/436
f 399/494/437 415/506/437 400/496/437
f 407/495/438 423/507/438 408/497/438
f 401/508/439 415/506/439 416/509/439
f 409/500/440 423/510/440 424/511/440
f 401/498/441 417/512/441 402/485/441
f 409/500/442 425/513/442 410/486/442
f 403/487/443 417/512/443 418/514/443
f 411/488/444 425/513/444 426/515/444
f 403/487/445 419/516/445 404/489/445
f 411/488/446 427/517/446 412/490/446
f 405/491/447 419/516/447 420/501/447
f 412/490/448 428/504/448 413/492/448
f 424/511/449 440/518/449 425/513/449
f 418/514/450 432/519/450 433/520/450
f 426/515/451 440/518/451 441/521/451
f 418/514/452 434/522/452 419/516/452
f 426/515/453 442/523/453 427/517/453
f 420/501/454 434/522/454 435/524/454
f 427/517/455 443/525/455 428/504/455
f 421/502/456 435/524/456 436/526/456
f 414/503/457 82/34/457 429/527/457
f 308/1/458 428/504/458 443/525/458
f 421/502/459 437/528/459 422/505/459
f 414/503/460 430/529/460 415/506/460
f 422/505/461 438/530/461 423/507/461
f 416/509/462 430/529/462 431/531/462
f 424/511/463 438/532/463 439/533/463
f 416/534/464 432/519/464 417/512/464
f 429/527/465 82/34/465 444/535/465
f 308/1/466 443/525/466 458/536/466
f 436/537/467 452/538/467 437/539/467
f 430/529/468 444/535/468 445/540/468
f 437/539/469 453/541/469 438/542/469
f 430/529/470 446/543/470 431/531/470
f 439/544/471 453/541/471 454/545/471
f 431/546/472 447/547/472 432/519/472
f 439/533/473 455/548/473 440/518/473
f 433/520/474 447/547/474 448/549/474
f 441/521/475 455/548/475 456/550/475
f 433/520/476 449/551/476 434/522/476
f 441/521/477 457/552/477 442/523/477
f 435/524/478 449/551/478 450/553/478
f 442/523/479 458/536/479 443/525/479
f 436/526/480 450/553/480 451/554/480
f 448/549/481 462/555/481 463/556/481
f 456/550/482 470/557/482 471/558/482
f 448/559/483 464/560/483 449/561/483
f 456/550/484 472/562/484 457/552/484
f 450/563/485 464/560/485 465/564/485
f 458/536/486 472/562/486 473/565/486
f 451/566/487 465/564/487 466/567/487
f 444/535/488 82/34/488 459/568/488
f 308/1/489 458/536/489 473/565/489
f 451/566/490 467/569/490 452/538/490
f 444/535/491 460/570/491 445/540/491
f 452/538/492 468/571/492 453/541/492
f 446/543/493 460/570/493 461/572/493
f 454/545/494 468/571/494 469/573/494
f 446/543/495 462/574/495 447/575/495
f 454/545/496 470/576/496 455/577/496
f 466/567/497 5/6/497 467/569/497
f 460/570/498 474/33/498 475/7/498
f 467/569/499 478/11/499 468/571/499
f 461/572/500 475/7/500 1/12/500
f 468/571/501 6/15/501 469/573/501
f 462/574/502 1/12/502 476/16/502
f 469/573/503 479/19/503 470/576/503
f 463/578/504 476/579/504 2/20/504
f 471/558/505 479/23/505 480/25/505
f 464/560/506 2/20/506 477/26/506
f 471/558/507 481/29/507 472/562/507
f 465/564/508 477/26/508 3/30/508
f 472/562/509 482/2/509 473/565/509
f 466/567/510 3/30/510 4/4/510
f 459/568/511 82/34/511 474/33/511
f 308/1/512 473/565/512 482/2/512
f 4/4/513 14/32/513 15/5/513
f 475/7/3 474/33/3 7/8/3
f 5/6/4 15/5/4 16/10/4
f 1/12/5 475/7/5 8/9/5
f 478/11/6 16/10/6 17/14/6
f 476/16/7 1/12/7 9/13/7
f 6/15/8 17/14/8 18/18/8
f 2/20/9 476/579/9 10/21/9
f 479/23/10 18/580/10 19/24/10
f 477/26/11 2/20/11 11/22/11
f 480/25/12 19/24/12 20/28/12
f 3/30/13 477/26/13 12/27/13
f 481/29/14 20/28/14 21/3/14
f 3/30/514 13/31/514 14/32/514
f 20/28/17 35/50/17 36/35/17
f 13/31/18 28/51/18 29/36/18
f 14/32/21 29/36/21 30/38/21
f 7/8/22 22/37/22 23/39/22
f 15/5/23 30/38/23 31/40/23
f 8/9/24 23/39/24 24/41/24
f 16/10/25 31/40/25 32/42/25
f 9/13/26 24/41/26 25/43/26
f 17/14/27 32/42/27 33/44/27
f 10/21/28 25/581/28 26/45/28
f 19/46/29 18/18/29 33/44/29
f 11/22/30 26/45/30 27/48/30
f 20/28/31 19/24/31 34/49/31
f 13/31/32 12/27/32 27/48/32
f 24/41/33 39/67/33 40/52/33
f 33/44/34 32/42/34 47/53/34
f 25/43/35 40/52/35 41/55/35
f 34/47/36 33/44/36 48/54/36
f 26/45/37 41/81/37 42/58/37
f 34/49/515 49/83/515 50/59/515
f 27/48/39 42/58/39 43/60/39
f 35/50/40 50/59/40 51/61/40
f 28/51/41 43/60/41 44/62/41
f 30/38/44 29/36/44 44/62/44
f 22/37/45 37/63/45 38/65/45
f 30/38/46 45/64/46 46/66/46
f 23/39/516 38/65/516 39/67/516
f 32/42/48 31/40/48 46/66/48
f 44/62/49 43/60/49 58/68/49
f 44/62/52 59/69/52 60/72/52
f 37/63/53 52/70/53 53/73/53
f 45/64/54 60/72/54 61/74/54
f 38/65/55 53/73/55 54/75/55
f 47/53/56 46/66/56 61/74/56
f 39/67/57 54/75/57 55/77/57
f 47/53/58 62/76/58 63/78/58
f 40/52/59 55/77/59 56/79/59
f 48/54/60 63/78/60 64/80/60
f 41/81/61 56/89/61 57/82/61
f 49/83/62 64/582/62 65/84/62
f 43/60/63 42/58/63 57/82/63
f 50/59/64 65/84/64 66/71/64
f 62/76/65 77/101/65 78/85/65
f 56/79/66 55/77/66 70/86/66
f 63/78/67 78/85/67 79/88/67
f 56/89/68 71/583/68 72/90/68
f 65/84/69 64/582/69 79/91/69
f 58/68/70 57/82/70 72/90/70
f 65/84/517 80/92/517 81/94/517
f 59/69/72 58/68/72 73/93/72
f 59/69/75 74/95/75 75/97/75
f 52/70/76 67/96/76 68/98/76
f 60/72/77 75/97/77 76/99/77
f 53/73/78 68/98/78 69/100/78
f 62/76/79 61/74/79 76/99/79
f 54/75/80 69/100/80 70/86/80
f 74/95/82 90/122/82 91/103/82
f 67/96/83 83/123/83 84/104/83
f 75/105/84 91/137/84 92/106/84
f 68/98/85 84/104/85 85/108/85
f 77/109/86 76/107/86 92/106/86
f 69/100/87 85/108/87 86/111/87
f 77/109/88 93/110/88 94/112/88
f 71/87/89 70/86/89 86/111/89
f 78/113/90 94/112/90 95/115/90
f 71/87/91 87/114/91 88/117/91
f 79/91/92 95/584/92 96/119/92
f 73/93/93 72/90/93 88/120/93
f 81/94/94 80/92/94 96/119/94
f 74/95/95 73/93/95 89/121/95
f 95/115/97 94/112/97 109/124/97
f 87/114/98 102/143/98 103/126/98
f 96/119/99 95/584/99 110/127/99
f 89/129/100 88/585/100 103/130/100
f 96/119/101 111/128/101 112/132/101
f 90/133/102 89/129/102 104/131/102
f 90/133/105 105/134/105 106/136/105
f 84/104/106 83/123/106 98/135/106
f 91/137/107 106/136/107 107/139/107
f 84/104/108 99/138/108 100/140/108
f 93/110/109 92/106/109 107/139/109
f 85/108/110 100/140/110 101/142/110
f 93/110/111 108/141/111 109/124/111
f 87/114/112 86/111/112 101/142/112
f 99/138/113 98/135/113 113/144/113
f 106/136/114 121/160/114 122/146/114
f 99/138/115 114/145/115 115/147/115
f 108/141/116 107/139/116 122/146/116
f 100/140/117 115/147/117 116/149/117
f 108/141/118 123/148/118 124/150/118
f 102/143/119 101/142/119 116/149/119
f 110/125/120 109/124/120 124/150/120
f 102/143/121 117/151/121 118/153/121
f 110/125/122 125/152/122 126/154/122
f 104/131/123 103/130/123 118/156/123
f 111/128/124 126/165/124 127/158/124
f 105/134/125 104/131/125 119/157/125
f 105/134/128 120/159/128 121/160/128
f 117/151/129 132/176/129 133/161/129
f 125/152/130 140/177/130 141/162/130
f 119/157/131 118/156/131 133/163/131
f 126/165/132 141/586/132 142/166/132
f 120/159/133 119/157/133 134/164/133
f 120/159/136 135/167/136 136/169/136
f 113/144/137 128/168/137 129/170/137
f 121/160/138 136/169/138 137/171/138
f 114/145/139 129/170/139 130/172/139
f 123/148/140 122/146/140 137/171/140
f 115/147/141 130/172/141 131/174/141
f 123/148/142 138/173/142 139/175/142
f 117/151/143 116/149/143 131/174/143
f 125/152/144 124/150/144 139/175/144
f 136/169/145 151/194/145 152/178/145
f 130/172/146 129/170/146 144/179/146
f 138/173/147 137/171/147 152/178/147
f 130/172/148 145/180/148 146/182/148
f 138/173/149 153/181/149 154/183/149
f 132/176/150 131/174/150 146/182/150
f 140/177/151 139/175/151 154/183/151
f 132/176/152 147/184/152 148/186/152
f 140/177/153 155/185/153 156/187/153
f 134/164/154 133/163/154 148/188/154
f 142/166/155 141/586/155 156/190/155
f 135/167/156 134/164/156 149/189/156
f 135/167/159 150/192/159 151/194/159
f 128/168/160 143/193/160 144/179/160
f 155/185/518 170/209/518 171/195/518
f 149/189/162 148/188/162 163/196/162
f 156/190/163 171/219/163 172/198/163
f 150/192/164 149/189/164 164/197/164
f 150/192/167 165/199/167 166/201/167
f 143/193/168 158/200/168 159/202/168
f 151/194/169 166/201/169 167/203/169
f 145/180/519 144/179/519 159/202/519
f 153/181/171 152/178/171 167/203/171
f 145/180/172 160/204/172 161/206/172
f 153/181/173 168/205/173 169/207/173
f 147/184/174 146/182/174 161/206/174
f 155/185/175 154/183/175 169/207/175
f 147/184/176 162/208/176 163/210/176
f 159/202/177 174/228/177 175/211/177
f 168/205/178 167/203/178 182/212/178
f 160/204/179 175/211/179 176/214/179
f 168/205/180 183/213/180 184/215/180
f 162/208/181 161/206/181 176/214/181
f 169/207/182 184/215/182 185/217/182
f 162/208/183 177/216/183 178/218/183
f 171/219/184 170/587/184 185/220/184
f 164/197/185 163/196/185 178/222/185
f 172/198/186 171/219/186 186/221/186
f 165/199/187 164/197/187 179/223/187
f 165/199/190 180/225/190 181/227/190
f 158/200/191 173/226/191 174/228/191
f 166/201/192 181/227/192 182/212/192
f 179/223/193 178/222/193 193/229/193
f 186/221/194 201/244/194 202/231/194
f 180/225/195 179/223/195 194/230/195
f 180/225/198 195/232/198 196/234/198
f 174/228/199 173/226/199 188/233/199
f 181/227/200 196/234/200 197/236/200
f 175/211/201 174/228/201 189/235/201
f 183/213/202 182/212/202 197/236/202
f 175/211/203 190/237/203 191/239/203
f 183/213/204 198/238/204 199/240/204
f 177/216/205 176/214/205 191/239/205
f 185/217/206 184/215/206 199/240/206
f 177/216/207 192/241/207 193/243/207
f 185/220/208 200/254/208 201/244/208
f 198/238/209 197/236/209 212/245/209
f 190/237/210 205/264/210 206/247/210
f 198/238/211 213/246/211 214/248/211
f 192/241/212 191/239/212 206/247/212
f 200/242/213 199/240/213 214/248/213
f 192/251/214 207/279/214 208/252/214
f 200/254/520 215/282/520 216/255/520
f 194/256/216 193/253/216 208/252/216
f 201/244/217 216/255/217 217/258/217
f 195/259/218 194/256/218 209/257/218
f 195/232/221 210/588/221 211/262/221
f 188/233/222 203/261/222 204/263/222
f 196/234/223 211/262/223 212/245/223
f 189/235/224 204/263/224 205/264/224
f 216/255/225 231/286/225 232/265/225
f 210/260/226 209/257/226 224/266/226
f 210/260/229 225/267/229 226/269/229
f 203/261/230 218/268/230 219/271/230
f 211/270/231 226/269/231 227/272/231
f 204/263/232 219/271/232 220/274/232
f 213/275/233 212/273/233 227/272/233
f 205/264/234 220/274/234 221/277/234
f 213/246/235 228/589/235 229/278/235
f 207/279/236 206/590/236 221/280/236
f 215/282/237 214/591/237 229/283/237
f 207/279/238 222/281/238 223/285/238
f 215/282/239 230/284/239 231/286/239
f 209/257/240 208/252/240 223/285/240
f 228/276/241 243/303/241 244/287/241
f 222/281/242 221/280/242 236/289/242
f 230/284/243 229/283/243 244/291/243
f 222/281/244 237/290/244 238/293/244
f 230/284/245 245/292/245 246/294/245
f 224/266/246 223/285/246 238/293/246
f 232/265/247 231/286/247 246/294/247
f 225/267/248 224/266/248 239/295/248
f 225/267/251 240/297/251 241/299/251
f 218/268/252 233/298/252 234/300/252
f 226/269/253 241/299/253 242/301/253
f 220/274/254 219/271/254 234/300/254
f 228/276/255 227/272/255 242/301/255
f 220/274/256 235/302/256 236/304/256
f 240/297/521 255/321/521 256/307/521
f 233/298/260 248/305/260 249/308/260
f 241/299/261 256/307/261 257/309/261
f 234/300/262 249/308/262 250/310/262
f 243/303/263 242/301/263 257/309/263
f 235/302/264 250/310/264 251/312/264
f 243/303/265 258/311/265 259/313/265
f 237/290/266 236/289/266 251/314/266
f 245/292/267 244/291/267 259/316/267
f 237/290/268 252/315/268 253/318/268
f 245/292/269 260/317/269 261/319/269
f 239/295/270 238/293/270 253/318/270
f 246/294/271 261/319/271 262/306/271
f 240/297/522 239/295/522 254/320/522
f 252/315/273 251/314/273 266/322/273
f 260/317/274 259/316/274 274/324/274
f 252/315/275 267/323/275 268/326/275
f 260/317/276 275/325/276 276/327/276
f 254/320/277 253/318/277 268/326/277
f 261/319/278 276/327/278 277/329/278
f 255/321/279 254/320/279 269/328/279
f 255/321/282 270/330/282 271/332/282
f 249/308/283 248/305/283 263/331/283
f 256/307/284 271/332/284 272/334/284
f 249/308/285 264/333/285 265/335/285
f 258/311/286 257/309/286 272/334/286
f 250/337/287 265/345/287 266/322/287
f 258/311/288 273/336/288 274/338/288
f 270/330/289 285/355/289 286/339/289
f 264/333/290 263/331/290 278/340/290
f 271/332/291 286/339/291 287/342/291
f 264/333/523 279/341/523 280/343/523
f 273/336/293 272/334/293 287/342/293
f 265/345/294 280/369/294 281/346/294
f 273/347/295 288/371/295 289/348/295
f 267/323/296 266/322/296 281/346/296
f 275/325/297 274/324/297 289/348/297
f 267/323/298 282/349/298 283/351/298
f 275/325/524 290/350/524 291/352/524
f 269/328/300 268/326/300 283/351/300
f 277/329/301 276/327/301 291/352/301
f 270/330/302 269/328/302 284/353/302
f 290/350/305 289/348/305 304/356/305
f 282/349/306 297/372/306 298/358/306
f 290/350/307 305/357/307 306/359/307
f 284/353/308 283/351/308 298/358/308
f 292/354/309 291/352/309 306/359/309
f 285/355/310 284/353/310 299/360/310
f 285/355/313 300/362/313 301/364/313
f 278/340/314 293/363/314 294/365/314
f 286/339/315 301/364/315 302/366/315
f 279/341/316 294/365/316 295/367/316
f 288/344/317 287/342/317 302/366/317
f 280/369/318 295/377/318 296/370/318
f 288/371/319 303/379/319 304/356/319
f 282/349/320 281/346/320 296/370/320
f 293/363/321 309/388/321 310/373/321
f 301/364/322 317/389/322 318/374/322
f 294/365/323 310/373/323 311/375/323
f 303/368/324 302/366/324 318/374/324
f 295/377/325 311/592/325 312/378/325
f 303/379/326 319/404/326 320/380/326
f 297/372/327 296/370/327 312/378/327
f 305/357/328 304/356/328 320/380/328
f 297/372/329 313/381/329 314/383/329
f 305/357/330 321/382/330 322/384/330
f 299/360/331 298/358/331 314/383/331
f 306/359/525 322/384/525 323/386/525
f 300/362/333 299/360/333 315/385/333
f 300/362/336 316/387/336 317/389/336
f 313/390/337 328/411/337 329/391/337
f 321/382/526 336/412/526 337/393/526
f 315/394/339 314/392/339 329/391/339
f 322/384/340 337/393/340 338/396/340
f 316/387/341 315/385/341 330/397/341
f 316/387/344 331/398/344 332/400/344
f 309/388/345 324/399/345 325/401/345
f 317/389/346 332/400/346 333/402/346
f 310/373/347 325/401/347 326/403/347
f 319/404/348 318/593/348 333/405/348
f 311/407/349 326/419/349 327/408/349
f 319/404/350 334/406/350 335/410/350
f 312/409/351 327/408/351 328/411/351
f 321/382/352 320/380/352 335/410/352
f 332/413/353 347/431/353 348/414/353
f 325/401/354 340/432/354 341/416/354
f 334/406/355 333/405/355 348/417/355
f 326/419/356 341/442/356 342/420/356
f 334/406/357 349/418/357 350/421/357
f 328/411/358 327/408/358 342/420/358
f 336/412/359 335/410/359 350/421/359
f 328/411/360 343/422/360 344/424/360
f 336/412/361 351/423/361 352/425/361
f 330/395/362 329/391/362 344/424/362
f 337/393/363 352/425/363 353/427/363
f 331/428/364 330/395/364 345/426/364
f 331/428/367 346/429/367 347/431/367
f 324/399/368 339/430/368 340/432/368
f 351/423/369 366/450/369 367/433/369
f 345/426/370 344/424/370 359/434/370
f 352/425/371 367/433/371 368/436/371
f 346/429/527 345/426/527 360/435/527
f 346/429/528 361/437/528 362/439/528
f 339/430/376 354/438/376 355/440/376
f 347/431/377 362/439/377 363/441/377
f 341/442/378 340/594/378 355/443/378
f 349/418/379 348/417/379 363/445/379
f 341/442/380 356/444/380 357/447/380
f 349/418/381 364/446/381 365/448/381
f 343/422/382 342/420/382 357/447/382
f 351/423/383 350/421/383 365/448/383
f 343/422/384 358/449/384 359/434/384
f 364/446/385 363/445/385 378/451/385
f 356/444/386 371/467/386 372/453/386
f 364/446/387 379/452/387 380/454/387
f 358/449/388 357/447/388 372/453/388
f 366/450/389 365/448/389 380/454/389
f 358/449/390 373/455/390 374/457/390
f 366/450/391 381/456/391 382/458/391
f 360/435/392 359/434/392 374/457/392
f 367/433/393 382/458/393 383/460/393
f 361/437/529 360/435/529 375/459/529
f 361/437/530 376/461/530 377/463/530
f 354/438/398 369/462/398 370/464/398
f 362/439/399 377/463/399 378/465/399
f 356/444/400 355/443/400 370/466/400
f 382/458/401 397/484/401 398/468/401
f 376/461/402 375/459/402 390/469/402
f 376/461/405 391/470/405 392/472/405
f 369/462/406 384/471/406 385/473/406
f 377/463/407 392/472/407 393/474/407
f 371/467/408 370/466/408 385/475/408
f 379/452/409 378/451/409 393/477/409
f 371/467/410 386/476/410 387/479/410
f 379/452/411 394/478/411 395/480/411
f 373/455/412 372/453/412 387/479/412
f 381/456/413 380/454/413 395/480/413
f 373/455/414 388/481/414 389/483/414
f 381/456/415 396/482/415 397/484/415
f 375/459/416 374/457/416 389/483/416
f 386/476/417 401/498/417 402/485/417
f 394/478/418 409/500/418 410/486/418
f 388/481/419 387/479/419 402/485/419
f 396/482/420 395/480/420 410/486/420
f 388/481/421 403/487/421 404/489/421
f 397/484/422 396/482/422 411/488/422
f 390/469/423 389/483/423 404/489/423
f 397/484/424 412/490/424 413/492/424
f 391/470/425 390/469/425 405/491/425
f 391/470/428 406/493/428 407/495/428
f 385/473/429 384/471/429 399/494/429
f 392/472/430 407/495/430 408/497/430
f 385/475/431 400/595/431 401/498/431
f 394/478/432 393/477/432 408/499/432
f 406/493/433 405/491/433 420/501/433
f 406/493/436 421/502/436 422/505/436
f 399/494/437 414/503/437 415/506/437
f 407/495/438 422/505/438 423/507/438
f 401/508/439 400/496/439 415/506/439
f 409/500/440 408/499/440 423/510/440
f 401/498/441 416/534/441 417/512/441
f 409/500/442 424/511/442 425/513/442
f 403/487/443 402/485/443 417/512/443
f 411/488/444 410/486/444 425/513/444
f 403/487/445 418/514/445 419/516/445
f 411/488/446 426/515/446 427/517/446
f 405/491/447 404/489/447 419/516/447
f 412/490/448 427/517/448 428/504/448
f 424/511/449 439/533/449 440/518/449
f 418/514/450 417/512/450 432/519/450
f 426/515/451 425/513/451 440/518/451
f 418/514/452 433/520/452 434/522/452
f 426/515/453 441/521/453 442/523/453
f 420/501/454 419/516/454 434/522/454
f 427/517/455 442/523/455 443/525/455
f 421/502/456 420/501/456 435/524/456
f 421/502/459 436/526/459 437/528/459
f 414/503/460 429/527/460 430/529/460
f 422/505/461 437/528/461 438/530/461
f 416/509/462 415/506/462 430/529/462
f 424/511/463 423/510/463 438/532/463
f 416/534/464 431/546/464 432/519/464
f 436/537/467 451/566/467 452/538/467
f 430/529/468 429/527/468 444/535/468
f 437/539/469 452/538/469 453/541/469
f 430/529/470 445/540/470 446/543/470
f 439/544/471 438/542/471 453/541/471
f 431/546/472 446/596/472 447/547/472
f 439/533/473 454/597/473 455/548/473
f 433/520/474 432/519/474 447/547/474
f 441/521/475 440/518/475 455/548/475
f 433/520/476 448/549/476 449/551/476
f 441/521/477 456/550/477 457/552/477
f 435/524/478 434/522/478 449/551/478
f 442/523/479 457/552/479 458/536/479
f 436/526/480 435/524/480 450/553/480
f 448/549/481 447/547/481 462/555/481
f 456/550/482 455/548/482 470/557/482
f 448/559/483 463/578/483 464/560/483
f 456/550/484 471/558/484 472/562/484
f 450/563/485 449/561/485 464/560/485
f 458/536/486 457/552/486 472/562/486
f 451/566/487 450/563/487 465/564/487
f 451/566/490 466/567/490 467/569/490
f 444/535/491 459/568/491 460/570/491
f 452/538/492 467/569/492 468/571/492
f 446/543/493 445/540/493 460/570/493
f 454/545/494 453/541/494 468/571/494
f 446/543/495 461/572/495 462/574/495
f 454/545/496 469/573/496 470/576/496
f 466/567/497 4/4/497 5/6/497
f 460/570/498 459/568/498 474/33/498
f 467/569/499 5/6/499 478/11/499
f 461/572/500 460/570/500 475/7/500
f 468/571/501 478/11/501 6/15/501
f 462/574/502 461/572/502 1/12/502
f 469/573/503 6/15/503 479/19/503
f 463/578/504 462/598/504 476/579/504
f 471/558/505 470/557/505 479/23/505
f 464/560/506 463/578/506 2/20/506
f 471/558/507 480/25/507 481/29/507
f 465/564/508 464/560/508 477/26/508
f 472/562/509 481/29/509 482/2/509
f 466/567/510 465/564/510 3/30/510
